<?xml version="1.0" encoding="UTF-8"?>
<svg version="1.1" xmlns="http://www.w3.org/2000/svg" width="48" height="48">
<path d="M0 0 C15.84 0 31.68 0 48 0 C48 15.84 48 31.68 48 48 C32.16 48 16.32 48 0 48 C0 32.16 0 16.32 0 0 Z " fill="#0256AA" transform="translate(0,0)"/>
<path d="M0 0 C2.99775028 1.52318122 5.1266266 3.19301101 7 6 C7.1875 9.625 7.1875 9.625 6 13 C5.29875 13.639375 4.5975 14.27875 3.875 14.9375 C1.78252779 16.78462417 1.78252779 16.78462417 1.9609375 19.01953125 C2.22098382 21.02610491 2.60318761 23.01593804 3 25 C5.92879371 24.37240135 8.36095629 23.41377341 11 22 C10.7153924 25.41529114 10.20339329 26.78498424 7.8125 29.3125 C4.57283878 31.25629673 2.71198163 31.34530062 -1 31 C-3.21854707 26.37802694 -4.38281159 23.23175837 -4 18 C-4.99 17.67 -5.98 17.34 -7 17 C-6.67 16.01 -6.34 15.02 -6 14 C-4.35 14 -2.7 14 -1 14 C-1 11.36 -1 8.72 -1 6 C-4.02437339 4.4878133 -6.66241534 4.82736631 -10 5 C-12.20067421 5.93283296 -12.20067421 5.93283296 -14 7 C-14.99 7 -15.98 7 -17 7 C-15.987668 4.06423721 -15.03642058 3.02487259 -12.4375 1.25 C-8.09859874 -0.32778228 -4.55327877 -0.9594128 0 0 Z " fill="#EAF1F8" transform="translate(27,8)"/>
<path d="M0 0 C0.99 0 1.98 0 3 0 C2.85831863 1.43791516 2.71148957 2.8753237 2.5625 4.3125 C2.48128906 5.11300781 2.40007813 5.91351563 2.31640625 6.73828125 C2 9 2 9 1 12 C0.77266072 14.83332104 0.61981954 17.66515481 0.4765625 20.50390625 C0.31929687 21.32761719 0.16203125 22.15132812 0 23 C-3 25 -3 25 -6 25 C-6.72794284 15.87644972 -5.21064674 9.13138009 -1 1 C-0.67 0.67 -0.34 0.34 0 0 Z " fill="#EAF0F7" transform="translate(17,15)"/>
<path d="M0 0 C0.99 0.66 1.98 1.32 3 2 C3.25660094 5.07921132 3.39431504 7.21136993 2 10 C-0.5625 10.625 -0.5625 10.625 -3 11 C-3 11.99 -3 12.98 -3 14 C-3.99 14.33 -4.98 14.66 -6 15 C-5.34 11.04 -4.68 7.08 -4 3 C-5.32 3.33 -6.64 3.66 -8 4 C-8 3.34 -8 2.68 -8 2 C-8.66 1.67 -9.32 1.34 -10 1 C-6.47005387 -0.17664871 -3.70544587 -0.19850603 0 0 Z " fill="#1261B0" transform="translate(24,12)"/>
<path d="M0 0 C2 1 2 1 3 3 C0.35261084 4.4606285 -0.89448334 5 -4 5 C-2.25 1.125 -2.25 1.125 0 0 Z " fill="#D2E1EF" transform="translate(14,10)"/>
</svg>
