<?xml version="1.0" encoding="UTF-8"?>
<svg version="1.1" xmlns="http://www.w3.org/2000/svg" width="533" height="468">
<path d="M0 0 C2.89346274 0.01612229 5.78553341 0.00002325 8.67895508 -0.01904297 C24.54633473 -0.0379313 39.49852537 2.04368259 54.8293457 6.14111328 C56.27579468 6.52517334 56.27579468 6.52517334 57.75146484 6.91699219 C72.73402701 11.02170206 86.64656126 17.09671959 100.3293457 24.39111328 C100.92166992 24.70129395 101.51399414 25.01147461 102.12426758 25.33105469 C126.49995861 38.17788628 148.56793234 57.59792876 165.01782227 79.63525391 C165.87253981 80.77954441 166.73358832 81.91914162 167.60180664 83.05322266 C183.54816526 103.89178966 194.56411758 128.06760445 200.8503418 153.48974609 C201.27649238 155.18131628 201.74712214 156.86154039 202.22387695 158.53955078 C206.3481456 173.37066463 206.71243455 188.90575262 206.6418457 204.20361328 C206.63911148 205.44495026 206.63911148 205.44495026 206.63632202 206.71136475 C206.58913324 219.47815827 206.03840588 231.87393375 203.3293457 244.39111328 C203.15773926 245.21095703 202.98613281 246.03080078 202.80932617 246.87548828 C194.92855758 283.61015226 177.20971832 317.17952634 151.3293457 344.39111328 C150.80775879 344.94524902 150.28617187 345.49938477 149.7487793 346.0703125 C117.43478151 380.20042484 74.56349916 400.52054748 28.3293457 407.39111328 C27.6391333 407.49568848 26.9489209 407.60026367 26.23779297 407.70800781 C18.74522829 408.69477743 11.18637712 408.63483291 3.6418457 408.64111328 C2.91147095 408.64178802 2.18109619 408.64246277 1.42858887 408.64315796 C-54.27681268 408.56177069 -104.86140309 385.96095402 -144.2956543 347.07861328 C-175.66263926 315.54798837 -194.33014222 274.13073956 -200.6706543 230.39111328 C-200.8253418 229.37102173 -200.8253418 229.37102173 -200.9831543 228.33032227 C-203.68351413 207.9835931 -202.73344059 185.43790264 -198.6706543 165.39111328 C-198.4826123 164.45219238 -198.29457031 163.51327148 -198.10083008 162.54589844 C-190.75222637 127.25272376 -173.75199942 89.99049402 -147.14331055 64.82861328 C-145.42592872 63.20730572 -145.42592872 63.20730572 -143.2331543 60.39111328 C-140.01856995 56.62769746 -136.44844193 53.57407338 -132.6706543 50.39111328 C-131.82889648 49.64990234 -130.98713867 48.90869141 -130.11987305 48.14501953 C-107.14526604 28.28453629 -79.50877653 13.99781417 -50.2331543 6.14111328 C-49.3649707 5.90666504 -48.49678711 5.6722168 -47.60229492 5.43066406 C-31.80088676 1.41692198 -16.27533306 -0.10748251 0 0 Z " fill="#74D4CE" transform="translate(256.670654296875,42.60888671875)"/>
<path d="M0 0 C0.33 0.66 0.66 1.32 1 2 C-0.21864625 3.72641553 -1.43730332 5.45282342 -2.65600586 7.17919922 C-3.7351229 8.70804478 -4.81405637 10.23701993 -5.89282227 11.76611328 C-8.59496226 15.59573964 -11.29921145 19.42380194 -14.01171875 23.24609375 C-20.42732704 32.29467881 -26.73115441 41.41396598 -32.98046875 50.578125 C-35.47114235 54.2299753 -37.97934595 57.86878356 -40.5 61.5 C-44.8318866 67.74112552 -49.11814696 74.01307566 -53.39648438 80.29101562 C-53.92048828 81.05865234 -54.44449219 81.82628906 -54.984375 82.6171875 C-55.48775391 83.35936523 -55.99113281 84.10154297 -56.50976562 84.86621094 C-57.48543529 86.26322156 -58.49394779 87.63798974 -59.53710938 88.98535156 C-62.24606384 92.13774397 -62.24606384 92.13774397 -62.74438477 96.03393555 C-61.60853995 99.03392186 -59.69081656 101.19214077 -57.6875 103.6875 C-53.0449431 109.55879431 -48.70276683 115.60030008 -44.41967773 121.73730469 C-40.59934993 127.1954482 -36.63031647 132.51375874 -32.546875 137.77734375 C-31 140 -31 140 -31 142 C-34.1171875 142.4921875 -34.1171875 142.4921875 -38 142 C-40.56237982 139.74352891 -42.27755926 136.97695383 -44.125 134.125 C-45.24932357 132.4787045 -46.37434493 130.83288537 -47.5 129.1875 C-48.07234375 128.33414063 -48.6446875 127.48078125 -49.234375 126.6015625 C-52.10334412 122.37427614 -55.11819966 118.25477082 -58.125 114.125 C-59.19048771 112.64871424 -60.25561709 111.17216976 -61.3203125 109.6953125 C-63.18593403 107.10877547 -65.08121027 104.5473709 -67 102 C-70.14634677 103.34687635 -71.76923196 104.64281821 -73.69921875 107.45703125 C-74.18205322 108.15119141 -74.6648877 108.84535156 -75.16235352 109.56054688 C-75.66565186 110.30369141 -76.1689502 111.04683594 -76.6875 111.8125 C-77.47435181 112.9562207 -77.47435181 112.9562207 -78.27709961 114.12304688 C-79.34544987 115.67594767 -80.41097583 117.23079539 -81.47363281 118.78759766 C-82.84826314 120.78006408 -84.25223959 122.7444231 -85.6796875 124.69921875 C-90.00564526 130.6654319 -92.88135961 135.93786537 -95 143 C-97.99531539 143.99843846 -99.17255732 144.00732761 -102.1875 143.5625 C-103.445625 143.376875 -104.70375 143.19125 -106 143 C-106.33 143.99 -106.66 144.98 -107 146 C-107.99 145.67 -108.98 145.34 -110 145 C-110 144.67 -110 144.34 -110 144 C-129.14 144 -148.28 144 -168 144 C-168.99 147.96 -168.99 147.96 -170 152 C-169.34 152 -168.68 152 -168 152 C-167.74283203 153.36705078 -167.74283203 153.36705078 -167.48046875 154.76171875 C-165.75579347 160.77616481 -161.81339099 165.71426831 -158.3125 170.8125 C-157.61705078 171.84181641 -156.92160156 172.87113281 -156.20507812 173.93164062 C-151.86849409 180.33326468 -147.45258911 186.6786395 -143 193 C-143.33 193.66 -143.66 194.32 -144 195 C-145.5634594 192.87570045 -147.12591385 190.75067634 -148.6875 188.625 C-149.18080811 187.95380127 -149.67411621 187.28260254 -150.18237305 186.59106445 C-152.85265012 182.95114536 -155.50725557 179.30123775 -158.1328125 175.62890625 C-163.69211011 167.85894402 -169.34521999 160.19941333 -175.25 152.6875 C-180.79064933 145.63280522 -186.01735382 138.46419938 -191 131 C-191.61617187 130.07703125 -192.23234375 129.1540625 -192.8671875 128.203125 C-194.15641874 126.26660339 -195.44410421 124.32905204 -196.73046875 122.390625 C-199.47259285 118.27805895 -202.26853357 114.20244345 -205.0625 110.125 C-205.61188232 109.32312256 -206.16126465 108.52124512 -206.72729492 107.69506836 C-207.88324082 106.00809693 -209.03924829 104.3211677 -210.1953125 102.63427734 C-213.32138513 98.07119243 -216.44322132 93.50523142 -219.5625 88.9375 C-220.12654541 88.11330566 -220.69059082 87.28911133 -221.27172852 86.43994141 C-227.25525518 77.67422243 -233.11148006 68.83277991 -239 60 C-239.33 87.06 -239.66 114.12 -240 142 C-241.98 142 -243.96 142 -246 142 C-246 111.97 -246 81.94 -246 51 C-239 51 -239 51 -237.03125 52.58203125 C-236.27328125 53.68611328 -236.27328125 53.68611328 -235.5 54.8125 C-234.92121094 55.6375 -234.34242188 56.4625 -233.74609375 57.3125 C-233.16988281 58.199375 -232.59367187 59.08625 -232 60 C-231.15115234 61.299375 -231.15115234 61.299375 -230.28515625 62.625 C-229.10869684 64.46038339 -227.94380935 66.3032227 -226.7890625 68.15234375 C-224.04884582 72.51395501 -221.1684446 76.77948667 -218.30029297 81.05761719 C-216.14610884 84.27554602 -213.99954246 87.49854989 -211.85205078 90.72094727 C-210.00483133 93.49275045 -208.15671948 96.26395728 -206.30859375 99.03515625 C-204.48513688 101.77008724 -202.66414509 104.50652528 -200.84765625 107.24609375 C-197.66699993 112.04143774 -194.44977804 116.8053885 -191.18359375 121.54296875 C-190.15383423 123.04065796 -190.15383423 123.04065796 -189.10327148 124.56860352 C-187.71486745 126.58618101 -186.3225268 128.60105586 -184.92602539 130.61303711 C-184.29043701 131.53737549 -183.65484863 132.46171387 -183 133.4140625 C-182.4225 134.2488916 -181.845 135.0837207 -181.25 135.94384766 C-180 138 -180 138 -180 140 C-178.68 139.01 -177.36 138.02 -176 137 C-174.02 137.99 -174.02 137.99 -172 139 C-172.99 136.525 -172.99 136.525 -174 134 C-173.67 133.67 -173.34 133.34 -173 133 C-172.8475744 131.50718599 -172.76188421 130.00749094 -172.70336914 128.50805664 C-172.64480995 127.0576725 -172.64480995 127.0576725 -172.58506775 125.57798767 C-172.54797195 124.5119783 -172.51087616 123.44596893 -172.47265625 122.34765625 C-172.43133072 121.23681168 -172.39000519 120.1259671 -172.34742737 118.98146057 C-171.85971099 105.13732134 -171.65068327 91.28803694 -171.4375 77.4375 C-171.293125 68.383125 -171.14875 59.32875 -171 50 C-150.54 50 -130.08 50 -109 50 C-108.67 51.65 -108.34 53.3 -108 55 C-107.67 54.01 -107.34 53.02 -107 52 C-105.68 52.33 -104.36 52.66 -103 53 C-103 52.34 -103 51.68 -103 51 C-99.89453125 50.4921875 -99.89453125 50.4921875 -96 51 C-93.3781668 53.34391418 -91.59503132 56.18906817 -89.6875 59.125 C-88.85327515 60.34558105 -88.85327515 60.34558105 -88.00219727 61.59082031 C-86.86580184 63.25352057 -85.7380782 64.92218114 -84.61914062 66.59667969 C-82.30143456 70.03689358 -79.87104471 73.39130989 -77.4375 76.75 C-75.16443376 79.92385977 -72.9377607 83.09502463 -70.84765625 86.390625 C-70.23792969 87.25171875 -69.62820313 88.1128125 -69 89 C-68.34 89 -67.68 89 -67 89 C-65.49609849 87.09526524 -64.11718582 85.18809433 -62.75 83.1875 C-61.8504008 81.90003256 -60.94927342 80.61363199 -60.046875 79.328125 C-59.55896484 78.63138672 -59.07105469 77.93464844 -58.56835938 77.21679688 C-55.76377042 73.25265183 -52.8825743 69.3451285 -50 65.4375 C-49.39841064 64.62192627 -48.79682129 63.80635254 -48.17700195 62.96606445 C-43.63175167 56.82118229 -39.00406595 50.74795778 -34.31884766 44.70898438 C-32.84323542 42.7968619 -31.37977557 40.87582139 -29.91796875 38.953125 C-24.10654056 31.31236633 -18.22415954 23.74573863 -12.19482422 16.27563477 C-7.94099479 10.98164583 -3.92061485 5.5465169 0 0 Z " fill="#6ED0CB" transform="translate(350,149)"/>
<path d="M0 0 C20.13 0 40.26 0 61 0 C61 1.65 61 3.3 61 5 C42.85 5 24.7 5 6 5 C6 16.88 6 28.76 6 41 C23.16 41 40.32 41 58 41 C58 42.65 58 44.3 58 46 C40.84 46 23.68 46 6 46 C6 59.2 6 72.4 6 86 C24.48 86 42.96 86 62 86 C62 87.65 62 89.3 62 91 C41.54 91 21.08 91 0 91 C0 60.97 0 30.94 0 0 Z " fill="#061414" transform="translate(180,200)"/>
<path d="M0 0 C0.495 0.99 0.495 0.99 1 2 C-0.21864625 3.72641553 -1.43730332 5.45282342 -2.65600586 7.17919922 C-3.7351229 8.70804478 -4.81405637 10.23701993 -5.89282227 11.76611328 C-8.59496226 15.59573964 -11.29921145 19.42380194 -14.01171875 23.24609375 C-20.42732704 32.29467881 -26.73115441 41.41396598 -32.98046875 50.578125 C-35.47114235 54.2299753 -37.97934595 57.86878356 -40.5 61.5 C-44.8318866 67.74112552 -49.11814696 74.01307566 -53.39648438 80.29101562 C-54.18249023 81.4424707 -54.18249023 81.4424707 -54.984375 82.6171875 C-55.48775391 83.35936523 -55.99113281 84.10154297 -56.50976562 84.86621094 C-57.48543529 86.26322156 -58.49394779 87.63798974 -59.53710938 88.98535156 C-62.24606384 92.13774397 -62.24606384 92.13774397 -62.74438477 96.03393555 C-61.60853995 99.03392186 -59.69081656 101.19214077 -57.6875 103.6875 C-53.0449431 109.55879431 -48.70276683 115.60030008 -44.41967773 121.73730469 C-40.59934993 127.1954482 -36.63031647 132.51375874 -32.546875 137.77734375 C-31 140 -31 140 -31 142 C-34.1171875 142.4921875 -34.1171875 142.4921875 -38 142 C-40.56237982 139.74352891 -42.27755926 136.97695383 -44.125 134.125 C-45.24932357 132.4787045 -46.37434493 130.83288537 -47.5 129.1875 C-48.07234375 128.33414063 -48.6446875 127.48078125 -49.234375 126.6015625 C-52.10334412 122.37427614 -55.11819966 118.25477082 -58.125 114.125 C-59.19048771 112.64871424 -60.25561709 111.17216976 -61.3203125 109.6953125 C-63.18593403 107.10877547 -65.08121027 104.5473709 -67 102 C-70.05766342 103.32091709 -71.69020511 104.53204419 -73.55859375 107.28125 C-74.02088379 107.9501123 -74.48317383 108.61897461 -74.95947266 109.30810547 C-75.44722168 110.03143066 -75.9349707 110.75475586 -76.4375 111.5 C-77.49497942 113.03462263 -78.55361516 114.56844897 -79.61328125 116.1015625 C-80.16322754 116.90110352 -80.71317383 117.70064453 -81.27978516 118.52441406 C-84.16976976 122.68343249 -87.14855627 126.777634 -90.125 130.875 C-91.21142552 132.37204179 -92.29739766 133.86941276 -93.3828125 135.3671875 C-93.84059082 135.99737793 -94.29836914 136.62756836 -94.77001953 137.27685547 C-95.87812807 138.82926318 -96.94200855 140.41301282 -98 142 C-101.625 142.1875 -101.625 142.1875 -105 142 C-103.71042988 139.29869777 -102.29647113 136.85907346 -100.56640625 134.41796875 C-100.08776123 133.74056641 -99.60911621 133.06316406 -99.1159668 132.36523438 C-98.34700073 131.28725586 -98.34700073 131.28725586 -97.5625 130.1875 C-97.03116455 129.43919922 -96.4998291 128.69089844 -95.95239258 127.91992188 C-92.3955195 122.92375107 -88.80743603 117.95065475 -85.1875 113 C-84.73673096 112.38237793 -84.28596191 111.76475586 -83.8215332 111.12841797 C-80.71473279 106.89941538 -77.46961975 102.81214957 -74.046875 98.83203125 C-72.78543604 97.0683116 -72.78543604 97.0683116 -73.30224609 95.09570312 C-74.47540114 91.57213319 -76.75171814 88.69716892 -78.875 85.6875 C-79.36387695 84.98616943 -79.85275391 84.28483887 -80.35644531 83.56225586 C-87.24825225 73.72169915 -94.27289479 63.95955559 -101.85546875 54.63671875 C-103 53 -103 53 -103 51 C-99.89453125 50.4921875 -99.89453125 50.4921875 -96 51 C-93.3781668 53.34391418 -91.59503132 56.18906817 -89.6875 59.125 C-88.85327515 60.34558105 -88.85327515 60.34558105 -88.00219727 61.59082031 C-86.86580184 63.25352057 -85.7380782 64.92218114 -84.61914062 66.59667969 C-82.30143456 70.03689358 -79.87104471 73.39130989 -77.4375 76.75 C-75.16443376 79.92385977 -72.9377607 83.09502463 -70.84765625 86.390625 C-70.23792969 87.25171875 -69.62820313 88.1128125 -69 89 C-68.34 89 -67.68 89 -67 89 C-65.49609849 87.09526524 -64.11718582 85.18809433 -62.75 83.1875 C-61.8504008 81.90003256 -60.94927342 80.61363199 -60.046875 79.328125 C-59.55896484 78.63138672 -59.07105469 77.93464844 -58.56835938 77.21679688 C-55.76377042 73.25265183 -52.8825743 69.3451285 -50 65.4375 C-49.39841064 64.62192627 -48.79682129 63.80635254 -48.17700195 62.96606445 C-43.63175167 56.82118229 -39.00406595 50.74795778 -34.31884766 44.70898438 C-32.84323542 42.7968619 -31.37977557 40.87582139 -29.91796875 38.953125 C-24.10654056 31.31236633 -18.22415954 23.74573863 -12.19482422 16.27563477 C-7.94099479 10.98164583 -3.92061485 5.5465169 0 0 Z " fill="#061212" transform="translate(350,149)"/>
<path d="M0 0 C7 0 7 0 8.96875 1.58203125 C9.4740625 2.31808594 9.979375 3.05414063 10.5 3.8125 C11.07878906 4.6375 11.65757813 5.4625 12.25390625 6.3125 C12.83011719 7.199375 13.40632813 8.08625 14 9 C14.56589844 9.86625 15.13179687 10.7325 15.71484375 11.625 C16.89130316 13.46038339 18.05619065 15.3032227 19.2109375 17.15234375 C21.95115418 21.51395501 24.8315554 25.77948667 27.69970703 30.05761719 C30.47315885 34.20061055 33.23523908 38.3512044 36 42.5 C37.73677227 45.10528132 39.47366699 47.71048057 41.2109375 50.31542969 C42.38401978 52.07569343 43.55593644 53.83673465 44.7265625 55.59863281 C50.80175742 64.73404559 56.94606444 73.82261128 63.08563232 82.91482544 C82.11194216 111.09275087 82.11194216 111.09275087 91.16796875 124.77050781 C95.02086647 130.57917973 98.97861698 136.30669561 103 142 C102.67 142.66 102.34 143.32 102 144 C100.4365406 141.87570045 98.87408615 139.75067634 97.3125 137.625 C96.81919189 136.95380127 96.32588379 136.28260254 95.81762695 135.59106445 C93.14734988 131.95114536 90.49274443 128.30123775 87.8671875 124.62890625 C82.30788989 116.85894402 76.65478001 109.19941333 70.75 101.6875 C65.20935067 94.63280522 59.98264618 87.46419938 55 80 C54.38382813 79.07703125 53.76765625 78.1540625 53.1328125 77.203125 C51.84358126 75.26660339 50.55589579 73.32905204 49.26953125 71.390625 C46.52740715 67.27805895 43.73146643 63.20244345 40.9375 59.125 C40.38811768 58.32312256 39.83873535 57.52124512 39.27270508 56.69506836 C38.11675918 55.00809693 36.96075171 53.3211677 35.8046875 51.63427734 C32.67861487 47.07119243 29.55677868 42.50523142 26.4375 37.9375 C25.87345459 37.11330566 25.30940918 36.28911133 24.72827148 35.43994141 C18.74474482 26.67422243 12.88851994 17.83277991 7 9 C6.67 36.06 6.34 63.12 6 91 C4.02 91 2.04 91 0 91 C0 60.97 0 30.94 0 0 Z " fill="#051212" transform="translate(104,200)"/>
<path d="M0 0 C23.1 0 46.2 0 70 0 C70 1.65 70 3.3 70 5 C59.11 5 48.22 5 37 5 C37 33.38 37 61.76 37 91 C35.35 91 33.7 91 32 91 C32 62.62 32 34.24 32 5 C21.44 5 10.88 5 0 5 C0 3.35 0 1.7 0 0 Z " fill="#051213" transform="translate(322,200)"/>
<path d="M0 0 C3.91107306 3.50900013 6.47695729 7.59298312 9.25 12 C17.598301 25.14673794 26.37119082 38.00942723 35.08563232 50.91482544 C54.11194216 79.09275087 54.11194216 79.09275087 63.16796875 92.77050781 C67.02086647 98.57917973 70.97861698 104.30669561 75 110 C74.67 110.66 74.34 111.32 74 112 C72.4365406 109.87570045 70.87408615 107.75067634 69.3125 105.625 C68.81919189 104.95380127 68.32588379 104.28260254 67.81762695 103.59106445 C65.14734988 99.95114536 62.49274443 96.30123775 59.8671875 92.62890625 C54.30788989 84.85894402 48.65478001 77.19941333 42.75 69.6875 C37.20935067 62.63280522 31.98264618 55.46419938 27 48 C26.38382813 47.07703125 25.76765625 46.1540625 25.1328125 45.203125 C23.85398795 43.28223501 22.57669718 41.36032321 21.30078125 39.4375 C18.38158561 35.05936909 15.40725563 30.71890964 12.4375 26.375 C11.87691895 25.55016113 11.31633789 24.72532227 10.73876953 23.87548828 C8.41449869 20.4661467 6.09613198 17.07163795 3.57421875 13.8046875 C-1.48905608 7.16865195 -1.48905608 7.16865195 -0.9375 2.875 C-0.628125 1.92625 -0.31875 0.9775 0 0 Z " fill="#07191B" transform="translate(132,232)"/>
<path d="M0 0 C1.24717912 2.49435825 1.13814868 4.23702649 1 7 C0.67 7.66 0.34 8.32 0 9 C-0.0396713 10.66619446 -0.04384447 12.33391013 0 14 C-0.86625 13.62875 -0.86625 13.62875 -1.75 13.25 C-2.4925 13.1675 -3.235 13.085 -4 13 C-6.27144074 14.85432087 -6.27144074 14.85432087 -8 17 C-7.67 17.66 -7.34 18.32 -7 19 C-7 20.32 -7 21.64 -7 23 C-10 25 -10 25 -12 25 C-12 25.99 -12 26.98 -12 28 C-12.48082031 28.46019531 -12.96164063 28.92039063 -13.45703125 29.39453125 C-15.46164897 31.48034867 -15.48117135 32.84016467 -15.6875 35.6875 C-15.75324219 36.49574219 -15.81898437 37.30398437 -15.88671875 38.13671875 C-15.92410156 38.75160156 -15.96148437 39.36648437 -16 40 C-16.66 40 -17.32 40 -18 40 C-18.12375 40.78375 -18.2475 41.5675 -18.375 42.375 C-19 45 -19 45 -21 47 C-21.65207285 49.61545866 -21.65207285 49.61545866 -22.0625 52.625 C-22.21847656 53.62789062 -22.37445313 54.63078125 -22.53515625 55.6640625 C-22.68855469 56.76492187 -22.84195313 57.86578125 -23 59 C-23.18304688 60.26585937 -23.36609375 61.53171875 -23.5546875 62.8359375 C-24.09587119 67.23167437 -24.11232847 71.5767653 -24.0625 76 C-24.05573242 77.16208984 -24.05573242 77.16208984 -24.04882812 78.34765625 C-24.03719758 80.23180524 -24.01926906 82.11591365 -24 84 C-26.475 84.99 -26.475 84.99 -29 86 C-28.98839844 86.91136719 -28.97679687 87.82273437 -28.96484375 88.76171875 C-28.88516916 100.20071277 -29.37367885 111.57963351 -30 123 C-30.66 123 -31.32 123 -32 123 C-32.33460943 104.80754265 -32.58932426 86.92695377 -29 69 C-28.81195801 68.05817871 -28.62391602 67.11635742 -28.43017578 66.14599609 C-24.34437222 46.52958838 -17.35672388 27.89951315 -8.125 10.125 C-7.76817139 9.43543213 -7.41134277 8.74586426 -7.04370117 8.03540039 C-5.14518833 4.54845469 -3.42459951 2.07318805 0 0 Z " fill="#60C5C0" transform="translate(87,139)"/>
<path d="M0 0 C20.46 0 40.92 0 62 0 C62 0.33 62 0.66 62 1 C41.87 1 21.74 1 1 1 C1 31.03 1 61.06 1 92 C21.46 92 41.92 92 63 92 C63 92.33 63 92.66 63 93 C43.2 93.33 23.4 93.66 3 94 C2.34 96.64 1.68 99.28 1 102 C1.66 102 2.32 102 3 102 C2.67 103.32 2.34 104.64 2 106 C-2.95 98.575 -2.95 98.575 -8 91 C-7.01 89.68 -6.02 88.36 -5 87 C-3.68 87.66 -2.36 88.32 -1 89 C-1.66 87.35 -2.32 85.7 -3 84 C-2.505 83.505 -2.505 83.505 -2 83 C-1.8475744 81.50718599 -1.76188421 80.00749094 -1.70336914 78.50805664 C-1.66432968 77.54113388 -1.62529022 76.57421112 -1.58506775 75.57798767 C-1.54797195 74.5119783 -1.51087616 73.44596893 -1.47265625 72.34765625 C-1.41066795 70.68138939 -1.41066795 70.68138939 -1.34742737 68.98146057 C-0.85971099 55.13732134 -0.65068327 41.28803694 -0.4375 27.4375 C-0.2209375 13.8559375 -0.2209375 13.8559375 0 0 Z " fill="#63ACA7" transform="translate(179,199)"/>
<path d="M0 0 C0.66 0.66 1.32 1.32 2 2 C1.030625 2.268125 0.06125 2.53625 -0.9375 2.8125 C-1.948125 3.204375 -2.95875 3.59625 -4 4 C-4.33 4.99 -4.66 5.98 -5 7 C-5.66 7 -6.32 7 -7 7 C-6.505 8.485 -6.505 8.485 -6 10 C-8.49064888 10.68707555 -10.37886292 11 -13 11 C-14.3743291 12.29103643 -15.70896357 13.6256709 -17 15 C-17.66 15.33 -18.32 15.66 -19 16 C-16.525 16.99 -16.525 16.99 -14 18 C-17.32604951 19.10868317 -20.53058454 19.54177532 -24 20 C-24 20.66 -24 21.32 -24 22 C-24.66 22.66 -25.32 23.32 -26 24 C-26.33 24.66 -26.66 25.32 -27 26 C-28.32 26 -29.64 26 -31 26 C-36.49668443 29.58967146 -38.15582664 32.75030141 -40 39 C-40 39.66 -40 40.32 -40 41 C-40.99 41 -41.98 41 -43 41 C-44.40035046 42.70150385 -44.40035046 42.70150385 -45.5625 44.875 C-48.8691796 50.62305987 -48.8691796 50.62305987 -53 52 C-53 53.32 -53 54.64 -53 56 C-55.39580248 58.22467373 -58.04709864 59.62901008 -61 61 C-60.49119277 56.30669196 -58.35338045 53.14745715 -55.625 49.4375 C-54.96322754 48.5237561 -54.96322754 48.5237561 -54.28808594 47.59155273 C-50.35589435 42.27010653 -46.01430733 37.41258997 -41.46484375 32.6171875 C-39.49356705 30.52407278 -37.6338744 28.4086883 -35.8125 26.1875 C-32.56797295 22.36392138 -28.83909581 19.21099666 -25 16 C-24.03191406 15.17886719 -23.06382813 14.35773438 -22.06640625 13.51171875 C-6.25548308 0.14547635 -6.25548308 0.14547635 0 0 Z " fill="#65CAC3" transform="translate(149,77)"/>
<path d="M0 0 C0.66 0 1.32 0 2 0 C-1.73191371 39.78061208 -22.40824487 77.85473196 -49 107 C-49.61328125 105.13671875 -49.61328125 105.13671875 -50 103 C-48.14944202 100.76656796 -46.59616917 99.29808458 -44 98 C-43.53476937 96.10466658 -43.53476937 96.10466658 -43.375 93.9375 C-43.25125 92.638125 -43.1275 91.33875 -43 90 C-41.68128906 89.99419922 -41.68128906 89.99419922 -40.3359375 89.98828125 C-35.42862229 88.53447475 -34.1041804 85.46801842 -31.625 81.1875 C-31.17511719 80.46240234 -30.72523438 79.73730469 -30.26171875 78.99023438 C-27.98856005 75.21430359 -27 73.56511461 -27 69 C-26.34 69 -25.68 69 -25 69 C-25.33 67.35 -25.66 65.7 -26 64 C-25.25943359 63.52820313 -25.25943359 63.52820313 -24.50390625 63.046875 C-23.86324219 62.61890625 -23.22257812 62.1909375 -22.5625 61.75 C-21.92441406 61.33234375 -21.28632813 60.9146875 -20.62890625 60.484375 C-18.67510211 58.70392998 -18.44545724 57.56009907 -18 55 C-17.505 54.01 -17.505 54.01 -17 53 C-17.66 53 -18.32 53 -19 53 C-19.33 52.01 -19.66 51.02 -20 50 C-19.34 50 -18.68 50 -18 50 C-17.67 49.01 -17.34 48.02 -17 47 C-16.01 47 -15.02 47 -14 47 C-13.67 45.35 -13.34 43.7 -13 42 C-12.01 42 -11.02 42 -10 42 C-10.04125 41.0925 -10.0825 40.185 -10.125 39.25 C-10.00468444 36.1217954 -9.6085292 34.61385994 -8 32 C-8.66 31.67 -9.32 31.34 -10 31 C-10 30.01 -10 29.02 -10 28 C-8.35 28 -6.7 28 -5 28 C-4.93941406 27.34773438 -4.87882812 26.69546875 -4.81640625 26.0234375 C-4.36452516 21.30997014 -3.81668419 16.66676681 -3 12 C-3 11.34 -3 10.68 -3 10 C-2.34 10 -1.68 10 -1 10 C-1.01160156 9.36191406 -1.02320313 8.72382813 -1.03515625 8.06640625 C-1.04417969 7.24011719 -1.05320312 6.41382813 -1.0625 5.5625 C-1.07410156 4.73878906 -1.08570313 3.91507812 -1.09765625 3.06640625 C-1 1 -1 1 0 0 Z " fill="#9DDBD5" transform="translate(459,278)"/>
<path d="M0 0 C3.10546875 -0.5078125 3.10546875 -0.5078125 7 0 C9.62179805 2.34388276 11.40520475 5.18895516 13.3125 8.125 C14.4386916 9.77481501 15.56499506 11.42455366 16.69140625 13.07421875 C17.2445752 13.90228027 17.79774414 14.7303418 18.36767578 15.58349609 C21.14200699 19.69063494 24.09217246 23.66976828 27.0168457 27.67041016 C28.77707503 30.11932781 30.03848144 32.11544432 31 35 C29.68 36.32 28.36 37.64 27 39 C25.58263362 37.02133145 24.16602724 35.04212677 22.75 33.0625 C22.30760986 32.44439453 21.86521973 31.82628906 21.40942383 31.18945312 C18.87013063 27.63611875 16.34547498 24.0732576 13.83984375 20.49609375 C13.31487305 19.7477124 12.78990234 18.99933105 12.24902344 18.22827148 C11.23053541 16.77490372 10.2141568 15.32005477 9.20019531 13.86352539 C6.95939814 10.6685259 4.69197711 7.58343976 2.14453125 4.625 C0 2 0 2 0 0 Z " fill="#061211" transform="translate(247,200)"/>
<path d="M0 0 C0.66 0.33 1.32 0.66 2 1 C2.33 28.06 2.66 55.12 3 83 C1.68 83 0.36 83 -1 83 C-1.02312328 72.32580302 -1.04091501 61.65161194 -1.05181217 50.97739506 C-1.05704103 46.02146078 -1.06413874 41.06554358 -1.07543945 36.10961914 C-1.08626822 31.33101164 -1.09227681 26.55242062 -1.09487724 21.7738018 C-1.09673151 19.94646381 -1.10035216 18.11912676 -1.10573006 16.29179573 C-1.11294036 13.74146671 -1.11399095 11.19120663 -1.11352539 8.64086914 C-1.11712067 7.87770386 -1.12071594 7.11453857 -1.12442017 6.32824707 C-1.11405216 1.11405216 -1.11405216 1.11405216 0 0 Z " fill="#000103" transform="translate(356,207)"/>
<path d="M0 0 C0.495 0.99 0.495 0.99 1 2 C-0.21864625 3.72641553 -1.43730332 5.45282342 -2.65600586 7.17919922 C-3.7351229 8.70804478 -4.81405637 10.23701993 -5.89282227 11.76611328 C-8.59496226 15.59573964 -11.29921145 19.42380194 -14.01171875 23.24609375 C-19.91007932 31.56532785 -25.72150255 39.93861779 -31.46728516 48.36401367 C-35.26960817 53.93947384 -39.10423156 59.48925846 -43 65 C-43.99 64.67 -44.98 64.34 -46 64 C-47.32 65.65 -48.64 67.3 -50 69 C-50.66 68.67 -51.32 68.34 -52 68 C-51.65332275 67.54786133 -51.30664551 67.09572266 -50.94946289 66.62988281 C-42.61226681 55.75902499 -42.61226681 55.75902499 -34.375 44.8125 C-30.3489756 39.42741836 -26.2064337 34.14201163 -22.04296875 28.86328125 C-18.55590216 24.44091494 -15.08776923 20.0039076 -11.625 15.5625 C-11.04210205 14.81726074 -10.4592041 14.07202148 -9.85864258 13.30419922 C-6.4605683 8.94217044 -3.18176929 4.52240242 0 0 Z " fill="#0B1E1F" transform="translate(350,149)"/>
<path d="M0 0 C0.66 0 1.32 0 2 0 C2 30.03 2 60.06 2 91 C3.65 91 5.3 91 7 91 C7 91.33 7 91.66 7 92 C5.0085944 92.38133299 3.00720923 92.71325582 1 93 C-1.04263691 90.95736309 -0.42177354 86.8246308 -0.5546875 84.01953125 C-0.59673309 83.14754593 -0.63877869 82.27556061 -0.68209839 81.37715149 C-1.2221789 68.62793094 -1.15037194 55.86291074 -1.13037109 43.10473633 C-1.12460534 39.39097269 -1.12801251 35.67728029 -1.13394356 31.9635191 C-1.13756413 29.06807419 -1.13640488 26.17264612 -1.13381577 23.2772007 C-1.13315421 21.90698042 -1.13394757 20.53675857 -1.13629532 19.16654015 C-1.13885436 17.25905769 -1.13425811 15.35156977 -1.12939453 13.4440918 C-1.12820114 11.82581734 -1.12820114 11.82581734 -1.12698364 10.17485046 C-0.98918363 6.72956872 -0.54054279 3.40343435 0 0 Z " fill="#68C8C2" transform="translate(102,200)"/>
<path d="M0 0 C10.56 0 21.12 0 32 0 C32 0.33 32 0.66 32 1 C22.43 1 12.86 1 3 1 C3.00785522 4.80120361 3.00785522 4.80120361 3.01586914 8.67919922 C3.03241362 17.03716045 3.04347468 25.39512238 3.05181217 33.75309563 C3.05703837 38.82222228 3.06413128 43.8913322 3.07543945 48.96044922 C3.08627763 53.84928681 3.09227882 58.73810827 3.09487724 63.62695694 C3.09672981 65.49533467 3.10034721 67.36371148 3.10573006 69.23208237 C3.11295281 71.84207846 3.11399041 74.45200729 3.11352539 77.06201172 C3.11712067 77.8402832 3.12071594 78.61855469 3.12442017 79.42041016 C3.11405216 84.77189568 3.11405216 84.77189568 2 87 C-0.31 87 -2.62 87 -5 87 C-5 86.67 -5 86.34 -5 86 C-3.35 86 -1.7 86 0 86 C0 57.62 0 29.24 0 0 Z " fill="#73A4A0" transform="translate(359,205)"/>
<path d="M0 0 C4.08924807 2.2502078 7.42754215 5.01004078 10.8125 8.1875 C11.34093506 8.68016357 11.86937012 9.17282715 12.41381836 9.68041992 C13.4690798 10.66812919 14.52196137 11.6583882 15.57226562 12.65136719 C16.76488331 13.77790961 17.96721739 14.89415421 19.171875 16.0078125 C23.47235903 20.11281999 27.19354826 24.59448627 30.875 29.25 C31.59055054 30.15455933 31.59055054 30.15455933 32.32055664 31.07739258 C34.53545092 33.93045651 36.56649414 36.67163008 38 40 C35.125 39.8125 35.125 39.8125 32 39 C30.6875 36.625 30.6875 36.625 30 34 C29.67 33.01 29.34 32.02 29 31 C28.01 30.67 27.02 30.34 26 30 C25.67 30.66 25.34 31.32 25 32 C23.68 31.67 22.36 31.34 21 31 C22 29 22 29 23 28 C22.34 26.68 21.68 25.36 21 24 C19.35 24 17.7 24 16 24 C13 17.25 13 17.25 13 15 C10.525 14.01 10.525 14.01 8 13 C7.67 13.99 7.34 14.98 7 16 C6.855625 15.2575 6.71125 14.515 6.5625 13.75 C5.76180829 9.83550718 5.2505968 7.3758952 3 4 C2.01 4.495 2.01 4.495 1 5 C0.34 4.67 -0.32 4.34 -1 4 C-0.67 2.68 -0.34 1.36 0 0 Z " fill="#94D8D3" transform="translate(387,88)"/>
<path d="M0 0 C0.66 0.66 1.32 1.32 2 2 C1.979375 2.99 1.95875 3.98 1.9375 5 C1.958125 5.99 1.97875 6.98 2 8 C2.99 8.66 3.98 9.32 5 10 C5.68753301 11.65816784 6.35561283 13.32459336 7 15 C7.66 15.33 8.32 15.66 9 16 C9 16.66 9 17.32 9 18 C12.96 17.505 12.96 17.505 17 17 C17.33 18.32 17.66 19.64 18 21 C17.34 21.33 16.68 21.66 16 22 C16.33 22.99 16.66 23.98 17 25 C17.66 25.33 18.32 25.66 19 26 C19 26.66 19 27.32 19 28 C19.99 28 20.98 28 22 28 C22.66 26.68 23.32 25.36 24 24 C24.66 24 25.32 24 26 24 C25.67 26.97 25.34 29.94 25 33 C26.98 32.505 26.98 32.505 29 32 C29.30292969 32.5775 29.60585937 33.155 29.91796875 33.75 C31.16987457 35.96876232 32.39698212 38.01800779 34 40 C36.62875402 40.58488562 36.62875402 40.58488562 39 40 C39.99 40.495 39.99 40.495 41 41 C41.625 44.0625 41.625 44.0625 42 47 C31.19951203 41.96143518 22.48834554 33.17444678 14 25 C13.49903809 24.52095215 12.99807617 24.0419043 12.48193359 23.54833984 C6.10362345 17.42423003 0.33760745 11.05053591 -5 4 C-3.74458443 1.48916886 -2.49936512 1.12874554 0 0 Z " fill="#6AC9C1" transform="translate(102,368)"/>
<path d="M0 0 C0.66 0.66 1.32 1.32 2 2 C1.625 5.625 1.625 5.625 1 9 C1.66 9 2.32 9 3 9 C3 9.99 3 10.98 3 12 C4.65 12.33 6.3 12.66 8 13 C8 13.66 8 14.32 8 15 C6.68 15.33 5.36 15.66 4 16 C4.31195313 16.50789063 4.62390625 17.01578125 4.9453125 17.5390625 C6.15222348 19.67313688 7.19384761 21.68231189 8 24 C7.125 27.125 7.125 27.125 6 30 C6.67079974 33.09575344 6.67079974 33.09575344 8 36 C8.28875 36.9075 8.5775 37.815 8.875 38.75 C9.78002851 41.16263233 9.78002851 41.16263233 12.02734375 41.87890625 C14 43 14 43 14.57421875 44.91796875 C14.61160156 45.66691406 14.64898437 46.41585937 14.6875 47.1875 C14.74164063 47.98414063 14.79578125 48.78078125 14.8515625 49.6015625 C14.90054688 50.39304687 14.94953125 51.18453125 15 52 C15.17260043 53.35614627 15.35835698 54.71074217 15.5625 56.0625 C15.706875 57.031875 15.85125 58.00125 16 59 C14.515 59.495 14.515 59.495 13 60 C-0.81540857 20.06811082 -0.81540857 20.06811082 0 0 Z " fill="#64C7C0" transform="translate(56,263)"/>
<path d="M0 0 C0.625 1.75 0.625 1.75 1 4 C0.34 5.32 -0.32 6.64 -1 8 C22.1 8.33 45.2 8.66 69 9 C69 9.33 69 9.66 69 10 C45.9 10 22.8 10 -1 10 C-1 11.65 -1 13.3 -1 15 C-2.32 14.34 -3.64 13.68 -5 13 C-5.72316406 14.06541016 -5.72316406 14.06541016 -6.4609375 15.15234375 C-7.09257812 16.07144531 -7.72421875 16.99054688 -8.375 17.9375 C-9.00148438 18.85402344 -9.62796875 19.77054688 -10.2734375 20.71484375 C-12 23 -12 23 -14 24 C-14.061875 24.763125 -14.12375 25.52625 -14.1875 26.3125 C-15.14883183 29.4922899 -15.76875184 29.7417179 -18.5625 31.3125 C-19.696875 31.869375 -20.83125 32.42625 -22 33 C-16.33820168 21.18644005 -7.88310287 10.41695737 0 0 Z " fill="#76B1AB" transform="translate(323,190)"/>
<path d="M0 0 C18.15 0 36.3 0 55 0 C55 0.99 55 1.98 55 3 C36.52 3 18.04 3 -1 3 C-0.67 2.01 -0.34 1.02 0 0 Z " fill="#000105" transform="translate(186,287)"/>
<path d="M0 0 C0.78503906 0.00515625 1.57007813 0.0103125 2.37890625 0.015625 C3.55259766 0.00789063 3.55259766 0.00789063 4.75 0 C6.94140625 0.265625 6.94140625 0.265625 9.94140625 2.265625 C9.94140625 3.255625 9.94140625 4.245625 9.94140625 5.265625 C6.64140625 4.935625 3.34140625 4.605625 -0.05859375 4.265625 C0.57780325 7.3492635 0.57780325 7.3492635 2.75390625 8.1796875 C3.47578125 8.41429687 4.19765625 8.64890625 4.94140625 8.890625 C8.87188753 10.19610628 8.87188753 10.19610628 9.94140625 11.265625 C10.40828633 16.63474591 10.40828633 16.63474591 8.70703125 18.93359375 C5.90928418 21.04428347 3.43403693 20.73379164 0.0390625 20.62890625 C-2.05859375 20.265625 -2.05859375 20.265625 -4.12109375 18.390625 C-5.05859375 16.265625 -5.05859375 16.265625 -5.05859375 14.265625 C-3.73859375 14.265625 -2.41859375 14.265625 -1.05859375 14.265625 C-0.72859375 14.925625 -0.39859375 15.585625 -0.05859375 16.265625 C1.92140625 16.265625 3.90140625 16.265625 5.94140625 16.265625 C5.94140625 15.275625 5.94140625 14.285625 5.94140625 13.265625 C5.38710938 13.07226562 4.8328125 12.87890625 4.26171875 12.6796875 C3.53726562 12.41929687 2.8128125 12.15890625 2.06640625 11.890625 C0.98746094 11.50777344 0.98746094 11.50777344 -0.11328125 11.1171875 C-2.05859375 10.265625 -2.05859375 10.265625 -4.05859375 8.265625 C-4.30859375 5.265625 -4.30859375 5.265625 -4.05859375 2.265625 C-2.05859375 0.265625 -2.05859375 0.265625 0 0 Z " fill="#0D1D1E" transform="translate(417.05859375,264.734375)"/>
<path d="M0 0 C2.16366424 3.65293963 2.82883819 7.50251938 3.5625 11.625 C3.68818359 12.28628906 3.81386719 12.94757813 3.94335938 13.62890625 C5.95184464 24.58619235 6.15804213 35.38756839 6.13037109 46.49536133 C6.12500498 49.06011852 6.13034548 51.6247012 6.13671875 54.18945312 C6.13605797 55.84635455 6.13477682 57.50325586 6.1328125 59.16015625 C6.13483673 59.91353775 6.13686096 60.66691925 6.13894653 61.44313049 C6.09184977 72.31774286 6.09184977 72.31774286 5 77 C4.01 77.495 4.01 77.495 3 78 C2.34 77.67 1.68 77.34 1 77 C1.31453125 76.01386719 1.6290625 75.02773438 1.953125 74.01171875 C3.67278895 67.08900797 3.57076979 59.90764693 3.75 52.8125 C3.77123932 52.06098663 3.79247864 51.30947327 3.81436157 50.53518677 C4.06836339 41.12884901 4.08425626 31.81733541 3.1875 22.4375 C3.10532227 21.57680908 3.02314453 20.71611816 2.93847656 19.8293457 C2.7118171 17.87430552 2.36935369 15.93316695 2 14 C1.34 13.67 0.68 13.34 0 13 C0.33 12.01 0.66 11.02 1 10 C0.5359375 9.071875 0.5359375 9.071875 0.0625 8.125 C-1.21314005 5.5737199 -1.22847617 3.81787278 -1 1 C-0.67 0.67 -0.34 0.34 0 0 Z " fill="#A2DBD5" transform="translate(457,198)"/>
<path d="M0 0 C4.08207713 3.65491844 6.8477717 8.02647365 9.83203125 12.5703125 C10.38686691 13.40658173 10.94170258 14.24285095 11.51335144 15.10446167 C13.28413168 17.77509312 15.04857806 20.44983488 16.8125 23.125 C19.12957609 26.62888675 21.44917239 30.13109902 23.76953125 33.6328125 C24.32061554 34.46532532 24.87169983 35.29783813 25.43948364 36.15557861 C29.20547271 41.8342255 33.02871564 47.46217882 37 53 C36.505 53.99 36.505 53.99 36 55 C34.43654054 52.87570037 32.8740299 50.75071779 31.3125 48.625 C30.82209229 47.95742676 30.33168457 47.28985352 29.82641602 46.60205078 C27.10977306 42.89757649 24.40710166 39.18382172 21.7265625 35.453125 C21.18386719 34.69813721 20.64117187 33.94314941 20.08203125 33.1652832 C18.98413429 31.63627914 17.88778335 30.10616381 16.79296875 28.57495117 C14.27929385 25.07758246 11.73934667 21.62872203 9.0234375 18.28515625 C4.18174627 12.31994109 0.79340598 7.80182546 0 0 Z " fill="#0C2526" transform="translate(170,289)"/>
<path d="M0 0 C1.98 0 3.96 0 6 0 C-1.53378238 9.11984183 -9.63103763 16.92899219 -19 24.125 C-19.75450439 24.70588379 -20.50900879 25.28676758 -21.28637695 25.88525391 C-26.74154214 30 -26.74154214 30 -29 30 C-28.67 28.02 -28.34 26.04 -28 24 C-27.278125 23.896875 -26.55625 23.79375 -25.8125 23.6875 C-22.75508007 22.94013068 -20.61670365 21.71954811 -18 20 C-18.33 18.68 -18.66 17.36 -19 16 C-16.3260876 15.10869587 -13.76276177 14.52268466 -11 14 C-10.979375 13.4225 -10.95875 12.845 -10.9375 12.25 C-9.6571408 9.17713793 -7.57590342 8.61314344 -4.72265625 7.1484375 C-2.03580347 5.35720232 -1.13462954 2.93668822 0 0 Z " fill="#95D8D2" transform="translate(403,385)"/>
<path d="M0 0 C3.85404876 3.42974981 6.20377216 7.33135524 8.75 11.75 C9.18030518 12.49137207 9.61061035 13.23274414 10.05395508 13.99658203 C13.05534479 19.22509472 15.93695343 24.5103181 18.6875 29.875 C19.03844727 30.5462793 19.38939453 31.21755859 19.75097656 31.90917969 C20.5809711 33.56831398 21.3005211 35.28176055 22 37 C21.67 37.99 21.34 38.98 21 40 C19.35 39.67 17.7 39.34 16 39 C15.67 38.01 15.34 37.02 15 36 C15.33 35.34 15.66 34.68 16 34 C16.66 34 17.32 34 18 34 C17.505 33.2575 17.01 32.515 16.5 31.75 C15 29 15 29 15 25 C14.05125 24.814375 13.1025 24.62875 12.125 24.4375 C9 23 9 23 7.8125 19.8125 C7.4103125 17.9253125 7.4103125 17.9253125 7 16 C6.08317509 13.62270526 5.0441892 11.32569414 4 9 C1.9254644 8.8509288 1.9254644 8.8509288 0 10 C-0.625 8.125 -0.625 8.125 -1 6 C-0.34 5.34 0.32 4.68 1 4 C0.6814823 1.89179203 0.6814823 1.89179203 0 0 Z " fill="#99D8D2" transform="translate(425,128)"/>
<path d="M0 0 C0.66 0.33 1.32 0.66 2 1 C0.70358033 5.53746885 -1.03954781 8.80151342 -3.875 12.5625 C-4.55304688 13.47128906 -5.23109375 14.38007813 -5.9296875 15.31640625 C-7.92426726 17.90183322 -9.95008681 20.45829149 -12 23 C-12.99 22.01 -13.98 21.02 -15 20 C-15 20.66 -15 21.32 -15 22 C-15.99 22.33 -16.98 22.66 -18 23 C-16.35169863 19.3243761 -14.10003592 16.277863 -11.6875 13.0625 C-10.92824219 12.04285156 -10.16898437 11.02320313 -9.38671875 9.97265625 C-7.08113497 7.10105354 -4.65019848 4.55253622 -2 2 C-1.34 1.34 -0.68 0.68 0 0 Z " fill="#091718" transform="translate(304,212)"/>
<path d="M0 0 C0.33 0 0.66 0 1 0 C1 30.03 1 60.06 1 91 C2.65 91 4.3 91 6 91 C6 91.33 6 91.66 6 92 C4.0085944 92.38133299 2.00720923 92.71325582 0 93 C-1 92 -1 92 -1.08229065 88.3870697 C-1.06732444 86.73837817 -1.04664168 85.08973333 -1.02172852 83.44116211 C-1.01212097 82.54368759 -1.00251343 81.64621307 -0.99261475 80.72154236 C-0.9595003 77.74006609 -0.9192157 74.75873073 -0.87890625 71.77734375 C-0.85461728 69.71611536 -0.83077313 67.65488169 -0.80735779 65.59364319 C-0.7443951 60.1569112 -0.67536319 54.72027229 -0.60510254 49.28363037 C-0.53452885 43.74056249 -0.46964637 38.19742838 -0.40429688 32.65429688 C-0.27512758 21.76945848 -0.13955184 10.88470988 0 0 Z " fill="#5A9B96" transform="translate(103,200)"/>
<path d="M0 0 C2.99324263 1.0975223 3.84610901 1.67682892 5.25 4.625 C5.4975 5.40875 5.745 6.1925 6 7 C5.195625 7.45375 4.39125 7.9075 3.5625 8.375 C0.91143428 9.74725665 0.91143428 9.74725665 0 12 C-0.66 12 -1.32 12 -2 12 C-2 11.34 -2 10.68 -2 10 C-2.99 10 -3.98 10 -5 10 C-5.268125 10.763125 -5.53625 11.52625 -5.8125 12.3125 C-6.95134505 14.88988618 -7.81416671 16.26954864 -10 18 C-10.66 18 -11.32 18 -12 18 C-12 18.66 -12 19.32 -12 20 C-12.66 19.67 -13.32 19.34 -14 19 C-12.04487581 16.2060731 -10.08535738 13.41525696 -8.125 10.625 C-7.56941406 9.8309375 -7.01382812 9.036875 -6.44140625 8.21875 C-5.90644531 7.45820313 -5.37148438 6.69765625 -4.8203125 5.9140625 C-4.32805176 5.2123291 -3.83579102 4.5105957 -3.32861328 3.78759766 C-2 2 -2 2 0 0 Z " fill="#79D5CD" transform="translate(281,250)"/>
<path d="M0 0 C1.11572266 3.75 1.11572266 3.75 0.07421875 6 C-0.61220703 6.99 -0.61220703 6.99 -1.3125 8 C-5.39426898 13.83377713 -5.39426898 13.83377713 -5.625 20.75 C-5.45871094 21.94882813 -5.45871094 21.94882813 -5.2890625 23.171875 C-5.19367188 23.77515625 -5.09828125 24.3784375 -5 25 C-8.375 25.125 -8.375 25.125 -12 25 C-12.66 24.34 -13.32 23.68 -14 23 C-13.64415615 19.57335556 -11.99469493 17.23509563 -10.05859375 14.453125 C-9.47529297 13.60878906 -8.89199219 12.76445312 -8.29101562 11.89453125 C-7.67935547 11.02183594 -7.06769531 10.14914063 -6.4375 9.25 C-5.82197266 8.36183594 -5.20644531 7.47367188 -4.57226562 6.55859375 C-3.05343811 4.3686564 -1.52921504 2.18269051 0 0 Z " fill="#7DD5D0" transform="translate(300,223)"/>
<path d="M0 0 C0.33 0.66 0.66 1.32 1 2 C0.27296875 3.02996094 -0.4540625 4.05992187 -1.203125 5.12109375 C-1.92338867 6.14154785 -1.92338867 6.14154785 -2.65820312 7.18261719 C-3.72961373 8.70033933 -4.80123218 10.21791476 -5.87304688 11.73535156 C-8.69623971 15.73295308 -11.51606124 19.73284168 -14.328125 23.73828125 C-14.86018555 24.4950415 -15.39224609 25.25180176 -15.94042969 26.03149414 C-16.95799578 27.47899306 -17.97433009 28.92735892 -18.98925781 30.37670898 C-21.55017823 34.01644581 -24.17249886 37.55898447 -27 41 C-27.76171875 38.83203125 -27.76171875 38.83203125 -28 36 C-26.33203125 33.44921875 -26.33203125 33.44921875 -23.8125 30.6875 C-22.8829246 29.63746127 -21.95733318 28.58388598 -21.03515625 27.52734375 C-20.54160645 26.9638623 -20.04805664 26.40038086 -19.53955078 25.81982422 C-16.79523755 22.57591194 -14.27942189 19.1623823 -11.75 15.75 C-11.26764893 15.10119873 -10.78529785 14.45239746 -10.28833008 13.78393555 C-9.34417925 12.51232424 -8.40104459 11.23995776 -7.45898438 9.96679688 C-4.98670235 6.63401509 -2.49294031 3.31734273 0 0 Z " fill="#102D30" transform="translate(350,149)"/>
<path d="M0 0 C2.10416239 0.0100538 4.20832945 0.01917539 6.3125 0.02734375 C11.41678405 0.04915803 16.52083915 0.0835546 21.625 0.125 C18.58711326 1.73188985 16.63834677 2.36210854 13.18359375 2.28515625 C12.35279297 2.27419922 11.52199219 2.26324219 10.66601562 2.25195312 C9.80685547 2.23068359 8.94769531 2.20941406 8.0625 2.1875 C6.35294982 2.15302811 4.64330514 2.12289674 2.93359375 2.09765625 C1.80135376 2.07070679 1.80135376 2.07070679 0.64624023 2.04321289 C-1.58176767 2.03969298 -1.58176767 2.03969298 -4.375 3.125 C-6.34416697 3.18474739 -8.31536557 3.18570468 -10.28515625 3.15234375 C-11.43951172 3.14009766 -12.59386719 3.12785156 -13.78320312 3.11523438 C-16.22336587 3.08002091 -18.66347589 3.04094582 -21.10351562 2.99804688 C-22.25658203 2.98708984 -23.40964844 2.97613281 -24.59765625 2.96484375 C-25.65734619 2.94800537 -26.71703613 2.93116699 -27.80883789 2.91381836 C-30.54136886 2.86021596 -30.54136886 2.86021596 -32.375 5.125 C-33.035 5.125 -33.695 5.125 -34.375 5.125 C-34.375 4.465 -34.375 3.805 -34.375 3.125 C-35.365 2.795 -36.355 2.465 -37.375 2.125 C-24.92281432 -0.28186178 -12.62835989 -0.10566831 0 0 Z " fill="#88CEC6" transform="translate(260.375,42.875)"/>
<path d="M0 0 C0.99 0.33 1.98 0.66 3 1 C5.00875442 0.72428861 7.01178687 0.39764263 9 0 C5.79967958 2.69490455 2.72697465 3.97225721 -1.2265625 5.296875 C-2.4228125 5.69777344 -3.6190625 6.09867187 -4.8515625 6.51171875 C-6.09679687 6.92035156 -7.34203125 7.32898438 -8.625 7.75 C-9.89079895 8.17787114 -11.15642592 8.60625145 -12.421875 9.03515625 C-13.61554688 9.43089844 -14.80921875 9.82664062 -16.0390625 10.234375 C-17.68189209 10.77916504 -17.68189209 10.77916504 -19.35791016 11.33496094 C-22 12 -22 12 -24 11 C-22.43979133 10.34865075 -20.87671421 9.70417036 -19.3125 9.0625 C-18.44238281 8.70285156 -17.57226562 8.34320313 -16.67578125 7.97265625 C-14.11820735 7.0429688 -11.6778677 6.45837375 -9 6 C-8.87625 5.030625 -8.7525 4.06125 -8.625 3.0625 C-8.41875 2.051875 -8.2125 1.04125 -8 0 C-5.11301479 -1.4434926 -3.10530768 -0.63373626 0 0 Z " fill="#8DD7D0" transform="translate(333,433)"/>
<path d="M0 0 C3.45397435 3.45397435 4.56375905 4.69127714 6 9 C5.01 9.495 5.01 9.495 4 10 C3.01 9.01 2.02 8.02 1 7 C1 29.44 1 51.88 1 75 C0.67 75 0.34 75 0 75 C0 50.25 0 25.5 0 0 Z " fill="#64B4B0" transform="translate(110,208)"/>
<path d="M0 0 C-4.20590354 4.4825205 -9.00336198 7.12148214 -14.3125 10.125 C-15.23740234 10.66253906 -16.16230469 11.20007813 -17.11523438 11.75390625 C-22.0184325 14.54876403 -26.48247644 16.76711887 -32 18 C-32 17.34 -32 16.68 -32 16 C-31.01 16 -30.02 16 -29 16 C-29 14.35 -29 12.7 -29 11 C-28.01 10.67 -27.02 10.34 -26 10 C-25.67 10.66 -25.34 11.32 -25 12 C-23.39125 11.2884375 -23.39125 11.2884375 -21.75 10.5625 C-19.67797135 9.66490054 -17.82934813 8.95958245 -15.625 8.4375 C-15.08875 8.293125 -14.5525 8.14875 -14 8 C-13.67 7.34 -13.34 6.68 -13 6 C-8.95475393 1.53628019 -6.09520662 -0.33862259 0 0 Z " fill="#92D7D0" transform="translate(374,415)"/>
<path d="M0 0 C0.99 0.66 1.98 1.32 3 2 C2 4 2 4 -0.4375 5.75 C-3.39161733 8.34385912 -4.06027239 10.24108956 -5 14 C-4.34 14 -3.68 14 -3 14 C-3.33 14.99 -3.66 15.98 -4 17 C-4.99 16.34 -5.98 15.68 -7 15 C-7.66 15 -8.32 15 -9 15 C-9.12375 15.7425 -9.2475 16.485 -9.375 17.25 C-10.41009464 21.8044164 -10.41009464 21.8044164 -12 24 C-15.125 25.25 -15.125 25.25 -18 26 C-14.85521303 20.20738006 -11.20211564 14.9403773 -7.3125 9.625 C-6.42208008 8.39716797 -6.42208008 8.39716797 -5.51367188 7.14453125 C-1.16636588 1.16636588 -1.16636588 1.16636588 0 0 Z " fill="#87D0CC" transform="translate(347,156)"/>
<path d="M0 0 C1.67542976 0.28604898 3.34385343 0.61781233 5 1 C5.33 3.31 5.66 5.62 6 8 C7.65 7.67 9.3 7.34 11 7 C12.125 8.5 12.125 8.5 13 11 C12.57598348 13.7773082 11.81108065 16.29639783 11 19 C1 7 1 7 -1 1 C-0.67 0.67 -0.34 0.34 0 0 Z " fill="#62C8C1" transform="translate(130,225)"/>
<path d="M0 0 C0.91007812 0.10183594 1.82015625 0.20367187 2.7578125 0.30859375 C3.45648438 0.39238281 4.15515625 0.47617187 4.875 0.5625 C4.875 0.8925 4.875 1.2225 4.875 1.5625 C3.91787109 1.65337891 3.91787109 1.65337891 2.94140625 1.74609375 C1.70197266 1.87177734 1.70197266 1.87177734 0.4375 2 C-0.38621094 2.08121094 -1.20992188 2.16242188 -2.05859375 2.24609375 C-4.11162025 2.35180815 -4.11162025 2.35180815 -5.125 3.5625 C-5.37505386 6.52067107 -5.37505386 6.52067107 -5.125 9.5625 C-3.02717213 11.66032787 -1.7450793 12.2134396 1 13.1875 C1.72445313 13.44789063 2.44890625 13.70828125 3.1953125 13.9765625 C3.74960937 14.16992188 4.30390625 14.36328125 4.875 14.5625 C4.545 15.8825 4.215 17.2025 3.875 18.5625 C1.895 18.5625 -0.085 18.5625 -2.125 18.5625 C-2.455 17.5725 -2.785 16.5825 -3.125 15.5625 C-4.445 15.5625 -5.765 15.5625 -7.125 15.5625 C-7.125 10.6125 -7.125 5.6625 -7.125 0.5625 C-4.50184968 -0.74907516 -2.89466564 -0.33399988 0 0 Z " fill="#8FCCC6" transform="translate(419.125,263.4375)"/>
<path d="M0 0 C0.99 0 1.98 0 3 0 C3.05379226 2.95857409 3.09357093 5.91617721 3.125 8.875 C3.14175781 9.71675781 3.15851563 10.55851562 3.17578125 11.42578125 C3.18222656 12.23144531 3.18867188 13.03710938 3.1953125 13.8671875 C3.20578613 14.61081543 3.21625977 15.35444336 3.22705078 16.12060547 C3 18 3 18 1 20 C-2.5 20.25 -2.5 20.25 -6 20 C-6.66 19.34 -7.32 18.68 -8 18 C-8 17.01 -8 16.02 -8 15 C-5.69 15.33 -3.38 15.66 -1 16 C-0.67 10.72 -0.34 5.44 0 0 Z " fill="#0C1D1E" transform="translate(405,265)"/>
<path d="M0 0 C5.83618404 2.73571127 10.86941072 5.86380812 16 9.75 C17.01900391 10.50990234 17.01900391 10.50990234 18.05859375 11.28515625 C19.70992326 12.51783884 21.35557744 13.75811838 23 15 C21 16 21 16 17 16 C17 15.34 17 14.68 17 14 C15.68 13.67 14.36 13.34 13 13 C13 11.68 13 10.36 13 9 C12.24074219 8.95101562 11.48148437 8.90203125 10.69921875 8.8515625 C9.70535156 8.77679688 8.71148437 8.70203125 7.6875 8.625 C6.20830078 8.52058594 6.20830078 8.52058594 4.69921875 8.4140625 C2 8 2 8 -1 6 C-0.67 4.02 -0.34 2.04 0 0 Z " fill="#93D6D0" transform="translate(363,71)"/>
<path d="M0 0 C3.83225427 -0.08912219 7.26562152 0.12132271 11 1 C11 1.99 11 2.98 11 4 C11.66 4 12.32 4 13 4 C13.33 4.99 13.66 5.98 14 7 C13.01 7.33 12.02 7.66 11 8 C11 10.31 11 12.62 11 15 C9.02 15.99 9.02 15.99 7 17 C7.66 16.01 8.32 15.02 9 14 C9.16699232 10.87478167 9.16699232 10.87478167 9 8 C4.545 6.02 4.545 6.02 0 4 C0 2.68 0 1.36 0 0 Z " fill="#79B1AC" transform="translate(417,268)"/>
<path d="M0 0 C1.98 0.99 1.98 0.99 4 2 C3.67 2.99 3.34 3.98 3 5 C3.99 5.33 4.98 5.66 6 6 C7.80967349 8.64490741 8.98472371 10.95417113 10 14 C9.67 14.66 9.34 15.32 9 16 C9.66 16 10.32 16 11 16 C11 16.66 11 17.32 11 18 C11.66 18 12.32 18 13 18 C12.67 19.32 12.34 20.64 12 22 C12 21.01 12 20.02 12 19 C10.88044922 18.66742188 10.88044922 18.66742188 9.73828125 18.328125 C6.323318 16.67179475 5.19169069 14.94622568 3.1875 11.75 C2.58292969 10.81671875 1.97835937 9.8834375 1.35546875 8.921875 C-0.14506772 5.68728918 -0.2657512 3.52250609 0 0 Z " fill="#60C8C2" transform="translate(83,345)"/>
<path d="M0 0 C0.33 0 0.66 0 1 0 C3.50389954 13.33425867 1.72500158 27.52962492 1 41 C0.34 41 -0.32 41 -1 41 C-1.02494208 36.60750699 -1.04297329 32.21505283 -1.05493164 27.82250977 C-1.05992328 26.33194255 -1.06671894 24.84138014 -1.07543945 23.35083008 C-1.12015168 15.50515009 -1.1148321 7.78626828 0 0 Z " fill="#65BFB9" transform="translate(56,221)"/>
<path d="M0 0 C0.99 0.33 1.98 0.66 3 1 C3 7.93 3 14.86 3 22 C1.68 22.33 0.36 22.66 -1 23 C-0.67 15.41 -0.34 7.82 0 0 Z " fill="#94D7D5" transform="translate(409,265)"/>
<path d="M0 0 C1.24717912 2.49435825 1.13814868 4.23702649 1 7 C0.67 7.66 0.34 8.32 0 9 C-0.0396713 10.66619446 -0.04384447 12.33391013 0 14 C-0.598125 13.814375 -1.19625 13.62875 -1.8125 13.4375 C-4.16408762 12.77906313 -4.16408762 12.77906313 -7 14 C-7.50432107 8.7046288 -6.28757779 6.13295494 -3 2 C-2.01 1.34 -1.02 0.68 0 0 Z " fill="#57CAC4" transform="translate(87,139)"/>
<path d="M0 0 C3.13506611 0.33589994 4.025249 1.02665172 6.25 3.375 C8 6 8 6 8 9 C8.66 9.33 9.32 9.66 10 10 C12.49759276 13.45820536 13.36541918 15.73677629 13 20 C9.36428659 16.6811607 6.86067641 12.99935849 4.25 8.875 C3.83878906 8.24207031 3.42757812 7.60914063 3.00390625 6.95703125 C0 2.25656665 0 2.25656665 0 0 Z " fill="#68C3BB" transform="translate(114,203)"/>
<path d="M0 0 C0.66 0 1.32 0 2 0 C0.40956621 5.08938811 -2.7446951 8.87456643 -6 13 C-3.69 13 -1.38 13 1 13 C1.268125 12.401875 1.53625 11.80375 1.8125 11.1875 C2.98493467 9.02775192 4.19369282 7.64209744 6 6 C5.7452486 7.31571603 5.47065859 8.62760376 5.1875 9.9375 C5.03667969 10.66839844 4.88585937 11.39929688 4.73046875 12.15234375 C4.48941406 12.76207031 4.24835938 13.37179687 4 14 C1.00468461 14.99843846 -0.17255732 15.00732761 -3.1875 14.5625 C-4.445625 14.376875 -5.70375 14.19125 -7 14 C-6.67 12.02 -6.34 10.04 -6 8 C-5.34 8 -4.68 8 -4 8 C-3.8453125 7.13375 -3.8453125 7.13375 -3.6875 6.25 C-2.89103535 3.64338842 -1.80934723 2.0264689 0 0 Z " fill="#6CB0AA" transform="translate(251,278)"/>
<path d="M0 0 C2.125 0.9375 2.125 0.9375 4 2 C4 3.32 4 4.64 4 6 C2.68 6 1.36 6 0 6 C0.33 8.31 0.66 10.62 1 13 C0.01 13.33 -0.98 13.66 -2 14 C-2.66 11.69 -3.32 9.38 -4 7 C-3.34 6.67 -2.68 6.34 -2 6 C-2.33 5.34 -2.66 4.68 -3 4 C-2.67 3.01 -2.34 2.02 -2 1 C-1.34 0.67 -0.68 0.34 0 0 Z " fill="#8ED7D3" transform="translate(396,273)"/>
<path d="M0 0 C2.51397534 3.77096301 3.70348578 7.59685434 5.125 11.875 C5.54072266 13.07962891 5.54072266 13.07962891 5.96484375 14.30859375 C7.30078916 18.30326795 8.39787484 21.72717016 8 26 C7.34 25.34 6.68 24.68 6 24 C6 22.68 6 21.36 6 20 C3.525 19.01 3.525 19.01 1 18 C1.66 15.69 2.32 13.38 3 11 C2.34 11 1.68 11 1 11 C0.67 7.37 0.34 3.74 0 0 Z " fill="#9CDAD3" transform="translate(449,172)"/>
<path d="M0 0 C4.06697824 4.87831986 7.62719565 10.10287789 11.25 15.3125 C11.8996875 16.24384766 12.549375 17.17519531 13.21875 18.13476562 C14.81403079 20.42211676 16.4077288 22.7105533 18 25 C17.67 25.66 17.34 26.32 17 27 C16.27554688 26.01 15.55109375 25.02 14.8046875 24 C14.33844971 23.36360596 13.87221191 22.72721191 13.3918457 22.0715332 C12.37883603 20.68808123 11.36695781 19.30380008 10.35620117 17.91870117 C7.30243573 13.74207522 4.19790304 9.6227826 0.92578125 5.61328125 C0 4 0 4 0 0 Z " fill="#1D5E5E" transform="translate(189,317)"/>
<path d="M0 0 C0.99 0.33 1.98 0.66 3 1 C-1.455 6.94 -1.455 6.94 -6 13 C-9 12 -9 12 -10.6875 8.9375 C-11.120625 7.968125 -11.55375 6.99875 -12 6 C-9.36 6.66 -6.72 7.32 -4 8 C-3.67 6.35 -3.34 4.7 -3 3 C-2.34 3 -1.68 3 -1 3 C-0.67 2.01 -0.34 1.02 0 0 Z " fill="#7DC7BF" transform="translate(289,226)"/>
<path d="M0 0 C3.34292611 3.1019945 5.76244801 6.43575362 8.25 10.25 C8.95640625 11.32765625 9.6628125 12.4053125 10.390625 13.515625 C10.92171875 14.33546875 11.4528125 15.1553125 12 16 C11.01 16.33 10.02 16.66 9 17 C8.01 16.34 7.02 15.68 6 15 C5.855625 13.845 5.71125 12.69 5.5625 11.5 C5.376875 10.345 5.19125 9.19 5 8 C3.68352881 7.30062468 2.34977849 6.63270867 1 6 C0.25 2.875 0.25 2.875 0 0 Z " fill="#61AFA9" transform="translate(116,217)"/>
<path d="M0 0 C0.99 0.66 1.98 1.32 3 2 C1.04817283 4.65068998 -0.91253256 7.29468057 -2.875 9.9375 C-3.43058594 10.69224609 -3.98617188 11.44699219 -4.55859375 12.22460938 C-5.36103516 13.30258789 -5.36103516 13.30258789 -6.1796875 14.40234375 C-6.67194824 15.06741943 -7.16420898 15.73249512 -7.67138672 16.41772461 C-9 18 -9 18 -11 19 C-11 18.01 -11 17.02 -11 16 C-10.34 16 -9.68 16 -9 16 C-9 15.01 -9 14.02 -9 13 C-8.34 13 -7.68 13 -7 13 C-6.5978125 11.7934375 -6.5978125 11.7934375 -6.1875 10.5625 C-5.795625 9.716875 -5.40375 8.87125 -5 8 C-4.01 7.67 -3.02 7.34 -2 7 C-2 5.02 -2 3.04 -2 1 C-1.34 0.67 -0.68 0.34 0 0 Z " fill="#83C9C5" transform="translate(341,156)"/>
<path d="M0 0 C0.556875 0.37125 1.11375 0.7425 1.6875 1.125 C-0.68725834 1.60539005 -3.06229155 2.08434474 -5.4375 2.5625 C-6.43523437 2.76456055 -6.43523437 2.76456055 -7.453125 2.97070312 C-14.23245586 4.3332157 -20.41337017 5.24395051 -27.3125 5.125 C-24.28166384 2.09416384 -20.58955457 2.47249952 -16.5 2.125 C-10.34907427 1.67572244 -10.34907427 1.67572244 -4.48828125 -0.0625 C-2.3125 -0.875 -2.3125 -0.875 0 0 Z " fill="#91D1CD" transform="translate(304.3125,444.875)"/>
<path d="M0 0 C1 3 1 3 1 7 C1.30404678 8.67225729 1.63128912 10.34080104 2 12 C-1.25548753 8.97704729 -3.68977058 5.79537691 -6 2 C-6 1.34 -6 0.68 -6 0 C-3 -1 -3 -1 0 0 Z " fill="#6BC2BD" transform="translate(188,305)"/>
<path d="M0 0 C1.32 0 2.64 0 4 0 C4.33 0.66 4.66 1.32 5 2 C6.88764903 2.68472665 6.88764903 2.68472665 9.0625 3.125 C9.79597656 3.29257812 10.52945312 3.46015625 11.28515625 3.6328125 C11.85105469 3.75398438 12.41695313 3.87515625 13 4 C12.67 4.66 12.34 5.32 12 6 C8.96666395 6.22893102 6.02633186 6.35414522 3 6 C0.9375 4.125 0.9375 4.125 0 2 C0 1.34 0 0.68 0 0 Z " fill="#152C2D" transform="translate(412,279)"/>
<path d="M0 0 C3.43859819 0.27912628 4.6928044 0.65239956 7.01953125 3.28515625 C7.61121094 4.20167969 8.20289063 5.11820313 8.8125 6.0625 C9.41707031 6.98160156 10.02164062 7.90070313 10.64453125 8.84765625 C11.09183594 9.55792969 11.53914063 10.26820313 12 11 C11.67 11.66 11.34 12.32 11 13 C8.5625 12.25 8.5625 12.25 6 11 C5.64028244 9.6735415 5.31045677 8.33884483 5 7 C3.83404344 5.05591393 3.83404344 5.05591393 2.4375 3.25 C1.98246094 2.63640625 1.52742188 2.0228125 1.05859375 1.390625 C0.53458984 0.70226562 0.53458984 0.70226562 0 0 Z " fill="#6EB4B0" transform="translate(262,226)"/>
<path d="M0 0 C1.22993056 3.68979167 0.59260576 4.56332441 -1 8 C-1.2475 8.721875 -1.495 9.44375 -1.75 10.1875 C-3.61244809 12.88804973 -5.91901232 13.19626408 -9 14 C-6.28316728 9.06945173 -3.33342102 4.53715638 0 0 Z " fill="#7FBEBC" transform="translate(338,168)"/>
<path d="M0 0 C0.99 0.66 1.98 1.32 3 2 C1.02 4.97 -0.96 7.94 -3 11 C-4.32 10.34 -5.64 9.68 -7 9 C-2.85714286 2.57142857 -2.85714286 2.57142857 0 0 Z " fill="#7EC9C4" transform="translate(272,247)"/>
<path d="M0 0 C0.33 0.66 0.66 1.32 1 2 C-2.96 7.61 -6.92 13.22 -11 19 C-11.99 18.67 -12.98 18.34 -14 18 C-13.40832031 17.28714844 -12.81664062 16.57429688 -12.20703125 15.83984375 C-7.94620085 10.67541147 -3.79866444 5.51419031 0 0 Z " fill="#316F6E" transform="translate(350,149)"/>
<path d="M0 0 C0.33 0 0.66 0 1 0 C1.02911321 3.0833134 1.04683682 6.16659125 1.0625 9.25 C1.07087891 10.12269531 1.07925781 10.99539063 1.08789062 11.89453125 C1.09111328 12.73886719 1.09433594 13.58320313 1.09765625 14.453125 C1.10289307 15.22817383 1.10812988 16.00322266 1.11352539 16.80175781 C1.00036998 18.99283598 0.60552448 20.89637861 0 23 C-4.75 22.25 -4.75 22.25 -7 20 C-5.02 19.34 -3.04 18.68 -1 18 C-0.505 9.09 -0.505 9.09 0 0 Z " fill="#71A7A4" transform="translate(408,265)"/>
<path d="M0 0 C0.33 1.32 0.66 2.64 1 4 C0.01 4.495 0.01 4.495 -1 5 C-1.309375 5.78375 -1.61875 6.5675 -1.9375 7.375 C-2.99023648 9.97587837 -3.822667 11.27627805 -6 13 C-6.66 13 -7.32 13 -8 13 C-8 13.66 -8 14.32 -8 15 C-8.66 14.67 -9.32 14.34 -10 14 C-6.7 9.38 -3.4 4.76 0 0 Z " fill="#72B7B2" transform="translate(277,255)"/>
<path d="M0 0 C1.65 1.65 3.3 3.3 5 5 C3.25 9.875 3.25 9.875 1 11 C-2 7.25 -2 7.25 -2 5 C-1.34 5 -0.68 5 0 5 C0 3.35 0 1.7 0 0 Z " fill="#081918" transform="translate(273,228)"/>
<path d="M0 0 C3.80881639 1.44472346 5.29742886 3.32603071 7 7 C6.67 7.99 6.34 8.98 6 10 C3.69 8.35 1.38 6.7 -1 5 C-0.67 3.35 -0.34 1.7 0 0 Z " fill="#77C0BD" transform="translate(250,207)"/>
<path d="M0 0 C7.8667126 0.42522771 15.36190145 1.02462968 23 3 C23 3.33 23 3.66 23 4 C17.92647987 5.17081234 13.071176 5.16637048 8 4 C7.34 3.34 6.68 2.68 6 2 C4.01178687 1.60235737 2.01055661 1.26224651 0 1 C0 0.67 0 0.34 0 0 Z " fill="#8FD0CC" transform="translate(282,44)"/>
<path d="M0 0 C0.33 0.99 0.66 1.98 1 3 C0.31292969 3.61488281 -0.37414062 4.22976562 -1.08203125 4.86328125 C-1.98308594 5.67152344 -2.88414063 6.47976562 -3.8125 7.3125 C-5.15248047 8.51326172 -5.15248047 8.51326172 -6.51953125 9.73828125 C-8.39926786 11.45224581 -10.22592747 13.17877604 -12 15 C-12.66 14.67 -13.32 14.34 -14 14 C-13.55269531 13.56429687 -13.10539062 13.12859375 -12.64453125 12.6796875 C-9.68292112 9.7622805 -6.80727632 6.85658037 -4.1875 3.625 C-2 1 -2 1 0 0 Z " fill="#6FC3BD" transform="translate(118,99)"/>
<path d="M0 0 C2.375 0.625 2.375 0.625 5 2 C6.81599324 5.79707677 7.18650531 8.02778658 6 12 C4.99157547 10.56839732 3.99352109 9.12948547 3 7.6875 C2.1646875 6.48673828 2.1646875 6.48673828 1.3125 5.26171875 C0 3 0 3 0 0 Z " fill="#061617" transform="translate(165,285)"/>
<path d="M0 0 C0.33 0.99 0.66 1.98 1 3 C1.66 3 2.32 3 3 3 C3 4.98 3 6.96 3 9 C-0.08809695 10.76462683 -1.23312136 11 -5 11 C-5 10.34 -5 9.68 -5 9 C-4.0409375 8.7215625 -4.0409375 8.7215625 -3.0625 8.4375 C-0.57873787 7.05753944 -0.57873787 7.05753944 -0.25 3.375 C-0.1675 2.26125 -0.085 1.1475 0 0 Z " fill="#96DAD7" transform="translate(428,276)"/>
<path d="M0 0 C3.33557632 2.9905167 5.15083921 5.93184627 7 10 C6.34 10 5.68 10 5 10 C5 9.34 5 8.68 5 8 C1.2236068 7.7018576 1.2236068 7.7018576 -1 9 C-1.66 7.68 -2.32 6.36 -3 5 C-2.34 5 -1.68 5 -1 5 C-0.67 3.35 -0.34 1.7 0 0 Z " fill="#0A1B1A" transform="translate(307,274)"/>
<path d="M0 0 C0.66 0 1.32 0 2 0 C2.66 1.65 3.32 3.3 4 5 C5.32 5 6.64 5 8 5 C7.37063561 7.93703384 6.37579827 10.33788628 5 13 C4.16209211 11.21046815 3.32980604 9.41830305 2.5 7.625 C1.80390625 6.12839844 1.80390625 6.12839844 1.09375 4.6015625 C0 2 0 2 0 0 Z " fill="#67C6BE" transform="translate(70,323)"/>
<path d="M0 0 C3.39417765 3.12621626 5.6062718 5.56541027 7 10 C5.02 10.66 3.04 11.32 1 12 C1.33 11.01 1.66 10.02 2 9 C1.3711811 6.98777953 0.70381157 4.98723268 0 3 C0 2.01 0 1.02 0 0 Z " fill="#5FB9B0" transform="translate(135,245)"/>
<path d="M0 0 C2.475 0.99 2.475 0.99 5 2 C5 3.65 5 5.3 5 7 C4.34 6.67 3.68 6.34 3 6 C3 5.34 3 4.68 3 4 C2.34 4 1.68 4 1 4 C1 8.95 1 13.9 1 19 C0.67 19 0.34 19 0 19 C0 12.73 0 6.46 0 0 Z " fill="#63CDC3" transform="translate(111,215)"/>
<path d="M0 0 C2.475 0.495 2.475 0.495 5 1 C5 1.66 5 2.32 5 3 C3.68 3.33 2.36 3.66 1 4 C2.32 6.64 3.64 9.28 5 12 C4.01 12 3.02 12 2 12 C2 11.34 2 10.68 2 10 C1.34 10 0.68 10 0 10 C0 6.7 0 3.4 0 0 Z " fill="#54C9C4" transform="translate(59,275)"/>
<path d="M0 0 C3.9036874 3.46994436 6.36588975 7.55224006 9 12 C7.35 12.33 5.7 12.66 4 13 C3.67 10.36 3.34 7.72 3 5 C1.68 4.67 0.36 4.34 -1 4 C-0.67 2.68 -0.34 1.36 0 0 Z " fill="#77BAB3" transform="translate(294,266)"/>
<path d="M0 0 C1.98 0 3.96 0 6 0 C6 0.99 6 1.98 6 3 C7.32 3.33 8.64 3.66 10 4 C5.70700357 5.26264601 3.12168689 4.62950412 -1 3 C-0.67 2.01 -0.34 1.02 0 0 Z " fill="#96D1C9" transform="translate(417,268)"/>
<path d="M0 0 C4.875 4.625 4.875 4.625 6 8 C8.31 8 10.62 8 13 8 C13 8.33 13 8.66 13 9 C11.56344146 9.08131463 10.1255517 9.13933559 8.6875 9.1875 C7.48673828 9.23970703 7.48673828 9.23970703 6.26171875 9.29296875 C4 9 4 9 2.25 7.6875 C0.46417478 5.27663596 0.32608415 2.93475732 0 0 Z " fill="#70AEA8" transform="translate(306,283)"/>
<path d="M0 0 C0.495 0.804375 0.99 1.60875 1.5 2.4375 C4.95695939 5.98088338 7.14788209 5.7573941 12 6 C11.67 6.99 11.34 7.98 11 9 C8.36 8.67 5.72 8.34 3 8 C2.67 7.01 2.34 6.02 2 5 C1.34 5 0.68 5 0 5 C0 3.35 0 1.7 0 0 Z " fill="#8ACBC3" transform="translate(411,279)"/>
<path d="M0 0 C0.33 0.99 0.66 1.98 1 3 C0.67 3.66 0.34 4.32 0 5 C-0.66 5 -1.32 5 -2 5 C-2.33 6.98 -2.66 8.96 -3 11 C-3.99 11.33 -4.98 11.66 -6 12 C-6.33 12.66 -6.66 13.32 -7 14 C-7.66 13.67 -8.32 13.34 -9 13 C-6.03 8.71 -3.06 4.42 0 0 Z " fill="#74B2AD" transform="translate(266,270)"/>
<path d="M0 0 C0.33 0 0.66 0 1 0 C1.33 4.95 1.66 9.9 2 15 C1.01 15.66 0.02 16.32 -1 17 C-2.08318662 12.91721966 -1.83473185 9.82121165 -1.0625 5.6875 C-0.86785156 4.61886719 -0.67320313 3.55023438 -0.47265625 2.44921875 C-0.31667969 1.64097656 -0.16070312 0.83273438 0 0 Z " fill="#5EC5C3" transform="translate(58,208)"/>
<path d="M0 0 C2.3125 0.5 2.3125 0.5 5 2 C6.34219295 4.5690412 7.20425705 7.21813439 8 10 C7.01 10 6.02 10 5 10 C3.61328125 8.57421875 3.61328125 8.57421875 2.3125 6.6875 C1.87550781 6.07261719 1.43851562 5.45773438 0.98828125 4.82421875 C0 3 0 3 0 0 Z " fill="#79C0BB" transform="translate(257,203)"/>
<path d="M0 0 C0.99 0.33 1.98 0.66 3 1 C2.814375 2.11375 2.62875 3.2275 2.4375 4.375 C1.68319343 7.82568861 1.68319343 7.82568861 3 10 C1.02 10 -0.96 10 -3 10 C-2.690625 9.278125 -2.38125 8.55625 -2.0625 7.8125 C-1.07439461 5.19692691 -0.4712246 2.74881018 0 0 Z " fill="#83D7D1" transform="translate(324,189)"/>
<path d="M0 0 C3.7910119 1.44950455 7.3874638 3.15172566 11 5 C11 5.33 11 5.66 11 6 C8 6 5 6 2 6 C1.67 5.34 1.34 4.68 1 4 C1.33 3.34 1.66 2.68 2 2 C1.34 2 0.68 2 0 2 C0 1.34 0 0.68 0 0 Z " fill="#8FD4CE" transform="translate(352,65)"/>
<path d="M0 0 C0.99 0.33 1.98 0.66 3 1 C3.33 3.64 3.66 6.28 4 9 C3.01 9.495 3.01 9.495 2 10 C-2 4.25 -2 4.25 -2 2 C-1.34 2 -0.68 2 0 2 C0 1.34 0 0.68 0 0 Z " fill="#6CC4BE" transform="translate(196,321)"/>
<path d="M0 0 C0.91191297 2.48957835 1.15965671 3.60705494 0.14453125 6.10546875 C-0.29503906 6.79253906 -0.73460937 7.47960937 -1.1875 8.1875 C-1.82751953 9.22970703 -1.82751953 9.22970703 -2.48046875 10.29296875 C-4.25705243 12.28877098 -5.39611102 12.62642278 -8 13 C-7.23302204 11.58124235 -6.46123222 10.16508548 -5.6875 8.75 C-5.04361328 7.56664062 -5.04361328 7.56664062 -4.38671875 6.359375 C-3.0603786 4.10272866 -1.61115776 2.06001403 0 0 Z " fill="#77B8AF" transform="translate(300,223)"/>
<path d="M0 0 C0.33 0.99 0.66 1.98 1 3 C1.99 3.33 2.98 3.66 4 4 C6.24064723 6.32363416 6.96556146 7.49490144 7.1875 10.75 C7.125625 11.4925 7.06375 12.235 7 13 C3.02502456 9.59287819 1.13206212 5.67239145 -1 1 C-0.67 0.67 -0.34 0.34 0 0 Z " fill="#62BAB1" transform="translate(120,210)"/>
<path d="M0 0 C1.14424971 3.43274914 1.30829828 4.64748565 0 8 C-2.23888072 9.66439574 -4.47582862 10.76086132 -7 12 C-5.61735163 9.13132769 -4.07851447 6.43975968 -2.375 3.75 C-1.92898438 3.04359375 -1.48296875 2.3371875 -1.0234375 1.609375 C-0.68570312 1.07828125 -0.34796875 0.5471875 0 0 Z " fill="#74B5B1" transform="translate(308,211)"/>
<path d="M0 0 C-0.35049575 3.24208567 -0.56221181 4.61527704 -3.0625 6.8125 C-3.701875 7.204375 -4.34125 7.59625 -5 8 C-5.33 6.35 -5.66 4.7 -6 3 C-2.25 0 -2.25 0 0 0 Z " fill="#050F12" transform="translate(316,198)"/>
<path d="M0 0 C3.37503669 1.1858237 5.64722731 2.27573689 8 5 C4.625 5.625 4.625 5.625 1 6 C0.34 5.34 -0.32 4.68 -1 4 C-0.625 1.875 -0.625 1.875 0 0 Z " fill="#87D7D0" transform="translate(363,73)"/>
<path d="M0 0 C-1.76237521 3.03520175 -2.61659622 3.89045606 -6.0625 4.875 C-7.031875 4.91625 -8.00125 4.9575 -9 5 C-9.66 4.34 -10.32 3.68 -11 3 C-10.34 3 -9.68 3 -9 3 C-9 2.34 -9 1.68 -9 1 C-3.375 -1.125 -3.375 -1.125 0 0 Z " fill="#67D0C9" transform="translate(186,59)"/>
<path d="M0 0 C2.5 1.6875 2.5 1.6875 5 4 C5.3125 6.75 5.3125 6.75 5 9 C5.66 9 6.32 9 7 9 C6.67 10.32 6.34 11.64 6 13 C4.80286983 11.21475351 3.61752721 9.4215972 2.4375 7.625 C1.44556641 6.12839844 1.44556641 6.12839844 0.43359375 4.6015625 C-0.03949219 3.74304688 -0.51257813 2.88453125 -1 2 C-0.67 1.34 -0.34 0.68 0 0 Z " fill="#69BDB3" transform="translate(162,273)"/>
<path d="M0 0 C-1.16703028 3.50109084 -1.8149643 4.23984869 -5 6 C-8.75 6.1875 -8.75 6.1875 -12 6 C-8.59780735 3.25207517 -4.51535412 0 0 0 Z " fill="#77C9C3" transform="translate(173,62)"/>
<path d="M0 0 C3.625 -0.1875 3.625 -0.1875 7 0 C6.071875 0.3403125 6.071875 0.3403125 5.125 0.6875 C2.34929703 2.40190477 1.96991828 3.94102695 1 7 C0.67 7.99 0.34 8.98 0 10 C0 9.34 0 8.68 0 8 C-0.66 8 -1.32 8 -2 8 C-2.20086443 4.28400809 -2.1519437 3.22791555 0 0 Z " fill="#67D0C8" transform="translate(182,293)"/>
<path d="M0 0 C3.63 0 7.26 0 11 0 C10.34 1.32 9.68 2.64 9 4 C8.01 3.67 7.02 3.34 6 3 C5.01 3.33 4.02 3.66 3 4 C2.01 3.34 1.02 2.68 0 2 C0 1.34 0 0.68 0 0 Z " fill="#81D6D1" transform="translate(308,292)"/>
<path d="M0 0 C0.33 0 0.66 0 1 0 C1 3.96 1 7.92 1 12 C0.01 12.495 0.01 12.495 -1 13 C-1 12.34 -1 11.68 -1 11 C-1.66 11 -2.32 11 -3 11 C-3.33 11.66 -3.66 12.32 -4 13 C-4 12.34 -4 11.68 -4 11 C-4.66 11 -5.32 11 -6 11 C-6 10.34 -6 9.68 -6 9 C-4.35 8.67 -2.7 8.34 -1 8 C-0.67 5.36 -0.34 2.72 0 0 Z " fill="#67C8C5" transform="translate(110,283)"/>
<path d="M0 0 C0.91007812 0.10183594 1.82015625 0.20367187 2.7578125 0.30859375 C3.45648438 0.39238281 4.15515625 0.47617187 4.875 0.5625 C4.875 0.8925 4.875 1.2225 4.875 1.5625 C3.91787109 1.65337891 3.91787109 1.65337891 2.94140625 1.74609375 C1.70197266 1.87177734 1.70197266 1.87177734 0.4375 2 C-0.38621094 2.08121094 -1.20992188 2.16242188 -2.05859375 2.24609375 C-4.11162025 2.35180815 -4.11162025 2.35180815 -5.125 3.5625 C-5.16592937 5.89547433 -5.16741723 8.22955225 -5.125 10.5625 C-6.115 11.0575 -6.115 11.0575 -7.125 11.5625 C-7.125 7.9325 -7.125 4.3025 -7.125 0.5625 C-4.50184968 -0.74907516 -2.89466564 -0.33399988 0 0 Z " fill="#83B5B1" transform="translate(419.125,263.4375)"/>
<path d="M0 0 C0.66 0.33 1.32 0.66 2 1 C-1.75 7.875 -1.75 7.875 -4 9 C-4.66 8.34 -5.32 7.68 -6 7 C-6 6.01 -6 5.02 -6 4 C-4.35 3.67 -2.7 3.34 -1 3 C-0.67 2.01 -0.34 1.02 0 0 Z " fill="#57CDC5" transform="translate(104,116)"/>
<path d="M0 0 C-0.99 0.66 -1.98 1.32 -3 2 C-3.33 2.66 -3.66 3.32 -4 4 C-6.3140622 4.73075648 -8.64828869 5.40138258 -11 6 C-10.4375 3.625 -10.4375 3.625 -9 1 C-2.84 -1.42 -2.84 -1.42 0 0 Z " fill="#75CCC2" transform="translate(208,50)"/>
<path d="M0 0 C2 2 2 2 2.125 4.625 C2.08375 5.40875 2.0425 6.1925 2 7 C1.01 7 0.02 7 -1 7 C-1 6.34 -1 5.68 -1 5 C-2.32 4.67 -3.64 4.34 -5 4 C-3.74458443 1.48916886 -2.49936512 1.12874554 0 0 Z " fill="#5ECAC6" transform="translate(102,368)"/>
<path d="M0 0 C6.25 3.125 6.25 3.125 8 8 C7.34 8.66 6.68 9.32 6 10 C4.99421411 8.71283353 3.99553202 7.42011342 3 6.125 C2.443125 5.40570313 1.88625 4.68640625 1.3125 3.9453125 C0 2 0 2 0 0 Z " fill="#81C5C0" transform="translate(298,260)"/>
<path d="M0 0 C0.66 0.66 1.32 1.32 2 2 C0.02 4.64 -1.96 7.28 -4 10 C-5.2077558 6.37673261 -4.54311128 5.35853631 -3 2 C-2.01 2 -1.02 2 0 2 C0 1.34 0 0.68 0 0 Z " fill="#7FC3BD" transform="translate(297,215)"/>
<path d="M0 0 C0.66 0.33 1.32 0.66 2 1 C2 1.99 2 2.98 2 4 C1.34 4 0.68 4 0 4 C-0.103125 4.78375 -0.20625 5.5675 -0.3125 6.375 C-1 9 -1 9 -4 11 C-3.67 8.36 -3.34 5.72 -3 3 C-2.01 3 -1.02 3 0 3 C0 2.01 0 1.02 0 0 Z " fill="#5CCBC5" transform="translate(69,175)"/>
<path d="M0 0 C4.9335117 2.35406142 9.51978158 4.86384711 14 8 C10.25 9.125 10.25 9.125 8 8 C8 7.34 8 6.68 8 6 C7.236875 5.71125 6.47375 5.4225 5.6875 5.125 C3 4 3 4 0 2 C0 1.34 0 0.68 0 0 Z " fill="#97CFC9" transform="translate(363,71)"/>
<path d="M0 0 C2.31 0 4.62 0 7 0 C7.33 0.66 7.66 1.32 8 2 C7.0625 4.125 7.0625 4.125 6 6 C1.125 3.375 1.125 3.375 0 0 Z " fill="#7ECFCC" transform="translate(295,256)"/>
<path d="M0 0 C3.78496138 1.51398455 4.0072198 2.0144396 6 6 C3.03 5.67 0.06 5.34 -3 5 C-1 1 -1 1 0 0 Z " fill="#7AB7B0" transform="translate(281,250)"/>
<path d="M0 0 C2.38672669 2.96283313 4.7353371 5.94270509 7 9 C6.67 9.66 6.34 10.32 6 11 C5.01 10.67 4.02 10.34 3 10 C3 8.68 3 7.36 3 6 C1.68 5.34 0.36 4.68 -1 4 C-0.67 2.68 -0.34 1.36 0 0 Z " fill="#61AFA9" transform="translate(128,234)"/>
<path d="M0 0 C1.9375 0.75 1.9375 0.75 4 2 C4.75 4.125 4.75 4.125 5 6 C3.35 6 1.7 6 0 6 C-0.38218767 4.34385343 -0.71395102 2.67542976 -1 1 C-0.67 0.67 -0.34 0.34 0 0 Z " fill="#88DBD7" transform="translate(403,106)"/>
<path d="M0 0 C3.26941682 0.94641013 4.66822278 1.41184947 6.375 4.4375 C7 7 7 7 6 10 C4.99421411 8.71283353 3.99553202 7.42011342 3 6.125 C2.443125 5.40570313 1.88625 4.68640625 1.3125 3.9453125 C0 2 0 2 0 0 Z " fill="#63B4AC" transform="translate(149,256)"/>
<path d="M0 0 C1.37562854 1.28965176 2.70766393 2.62689293 4 4 C4 4.66 4 5.32 4 6 C2.02 6.99 2.02 6.99 0 8 C-1.125 5.6875 -1.125 5.6875 -2 3 C-1.34 2.01 -0.68 1.02 0 0 Z " fill="#091F1F" transform="translate(142,247)"/>
<path d="M0 0 C3.08089673 2.77280706 4.68775452 5.06326356 6 9 C5.01 9.495 5.01 9.495 4 10 C0.06153846 5.69230769 0.06153846 5.69230769 -0.25 2.1875 C-0.1675 1.465625 -0.085 0.74375 0 0 Z " fill="#60A39E" transform="translate(110,208)"/>
<path d="M0 0 C1.32 0 2.64 0 4 0 C2.44499019 3.81684226 -0.03595495 6.19195732 -3 9 C-3 7.35 -3 5.7 -3 4 C-2.01 4 -1.02 4 0 4 C0 2.68 0 1.36 0 0 Z " fill="#7BBEB7" transform="translate(312,193)"/>
<path d="M0 0 C0 0.99 0 1.98 0 3 C-1.98 3.99 -1.98 3.99 -4 5 C-5.32 4.01 -6.64 3.02 -8 2 C-4.77208445 -0.1519437 -3.71599191 -0.20086443 0 0 Z " fill="#62CFCA" transform="translate(175,425)"/>
<path d="M0 0 C2.31 0 4.62 0 7 0 C7.33 0.99 7.66 1.98 8 3 C6.02 3.33 4.04 3.66 2 4 C1.34 2.68 0.68 1.36 0 0 Z " fill="#0B2026" transform="translate(247,200)"/>
<path d="M0 0 C0 0.66 0 1.32 0 2 C-2.64 2.33 -5.28 2.66 -8 3 C-8.33 2.34 -8.66 1.68 -9 1 C-5.64919071 -1.10976881 -3.77897651 -1.0497157 0 0 Z " fill="#76CBC5" transform="translate(219,443)"/>
<path d="M0 0 C0.99 0.33 1.98 0.66 3 1 C2.95875 1.721875 2.9175 2.44375 2.875 3.1875 C3.00921305 6.20729369 3.75170619 8.26935729 5 11 C4.34 11 3.68 11 3 11 C0.84694043 7.14243493 -0.39253254 4.44870215 0 0 Z " fill="#64C9C4" transform="translate(77,335)"/>
<path d="M0 0 C1.32 0.66 2.64 1.32 4 2 C3.67 4.31 3.34 6.62 3 9 C-0.875 4.25 -0.875 4.25 -2 2 C-1.34 2 -0.68 2 0 2 C0 1.34 0 0.68 0 0 Z " fill="#6FC8C5" transform="translate(201,329)"/>
<path d="M0 0 C0.33 1.32 0.66 2.64 1 4 C0.01 4.33 -0.98 4.66 -2 5 C-2 7.31 -2 9.62 -2 12 C-2.99 11.34 -3.98 10.68 -5 10 C-4.38545304 6.00544473 -2.29353263 3.25533664 0 0 Z " fill="#70A6A3" transform="translate(291,236)"/>
<path d="M0 0 C0.99 0.33 1.98 0.66 3 1 C2.02471263 2.33617352 1.04466681 3.6688751 0.0625 5 C-0.48277344 5.7425 -1.02804687 6.485 -1.58984375 7.25 C-2.28787109 8.11625 -2.28787109 8.11625 -3 9 C-3.33 9 -3.66 9 -4 9 C-4 7.35 -4 5.7 -4 4 C-3.01 4 -2.02 4 -1 4 C-0.67 2.68 -0.34 1.36 0 0 Z " fill="#84C6C1" transform="translate(320,184)"/>
<path d="M0 0 C1.6875 2.5 1.6875 2.5 3 5 C0.69 4.67 -1.62 4.34 -4 4 C-4.33 3.01 -4.66 2.02 -5 1 C-3 0 -3 0 0 0 Z " fill="#63CFC8" transform="translate(157,417)"/>
<path d="M0 0 C1.32 0.33 2.64 0.66 4 1 C4 2.32 4 3.64 4 5 C4.66 5 5.32 5 6 5 C5.67 6.32 5.34 7.64 5 9 C4.16094435 7.87926138 3.32892169 6.75325453 2.5 5.625 C2.0359375 4.99851562 1.571875 4.37203125 1.09375 3.7265625 C0 2 0 2 0 0 Z " fill="#70BEB9" transform="translate(176,296)"/>
<path d="M0 0 C0.33 0 0.66 0 1 0 C1 1.65 1 3.3 1 5 C2.98 5 4.96 5 7 5 C6.67 5.99 6.34 6.98 6 8 C5.01 8.33 4.02 8.66 3 9 C3 8.34 3 7.68 3 7 C2.01 6.67 1.02 6.34 0 6 C0 4.02 0 2.04 0 0 Z " fill="#83D2CE" transform="translate(243,287)"/>
<path d="M0 0 C0.33 0.66 0.66 1.32 1 2 C1.66 2 2.32 2 3 2 C2.67 3.65 2.34 5.3 2 7 C1.01 7 0.02 7 -1 7 C-1.625 5.1875 -1.625 5.1875 -2 3 C-1.34 2.01 -0.68 1.02 0 0 Z " fill="#030A0D" transform="translate(304,272)"/>
<path d="M0 0 C0.66 0 1.32 0 2 0 C1.45276317 3.37462715 0.9451 5.08235 -1 8 C-1.99 7.67 -2.98 7.34 -4 7 C-2.68 4.69 -1.36 2.38 0 0 Z " fill="#061310" transform="translate(321,187)"/>
<path d="M0 0 C3.37462715 0.54723683 5.08235 1.0549 8 3 C8 3.66 8 4.32 8 5 C7.01 5 6.02 5 5 5 C5 4.34 5 3.68 5 3 C3.68 3.33 2.36 3.66 1 4 C0.67 2.68 0.34 1.36 0 0 Z " fill="#80D7D1" transform="translate(335,59)"/>
<path d="M0 0 C1.58467728 0.28427417 3.1677057 0.57774818 4.75 0.875 C6.07257813 1.11863281 6.07257813 1.11863281 7.421875 1.3671875 C9.86947744 1.96796264 11.80599857 2.77997117 14 4 C12.37509046 4.02698189 10.75005367 4.04638757 9.125 4.0625 C8.22007812 4.07410156 7.31515625 4.08570313 6.3828125 4.09765625 C4 4 4 4 2 3 C2 2.34 2 1.68 2 1 C1.34 0.67 0.68 0.34 0 0 Z " fill="#90D0CA" transform="translate(306,48)"/>
<path d="M0 0 C2.5 2.3125 2.5 2.3125 5 5 C5 5.99 5 6.98 5 8 C0.125 5.375 0.125 5.375 -1 2 C-0.67 1.34 -0.34 0.68 0 0 Z " fill="#65B1AC" transform="translate(178,306)"/>
<path d="M0 0 C4.875 4.625 4.875 4.625 6 8 C5.34 8 4.68 8 4 8 C3.34 7.34 2.68 6.68 2 6 C1.01 5.34 0.02 4.68 -1 4 C-0.67 2.68 -0.34 1.36 0 0 Z " fill="#60AFAA" transform="translate(144,258)"/>
<path d="M0 0 C0.99 0.33 1.98 0.66 3 1 C3 2.98 3 4.96 3 7 C2.38125 6.649375 1.7625 6.29875 1.125 5.9375 C0.073125 5.4734375 0.073125 5.4734375 -1 5 C-1.99 5.495 -1.99 5.495 -3 6 C-2.67 4.68 -2.34 3.36 -2 2 C-1.34 2 -0.68 2 0 2 C0 1.34 0 0.68 0 0 Z " fill="#7DCAC2" transform="translate(319,198)"/>
<path d="M0 0 C-0.49831724 3.68754757 -1.10067643 5.60490662 -4 8 C-4.6875 5.6875 -4.6875 5.6875 -5 3 C-3.40083326 0.79162689 -2.76966516 0 0 0 Z " fill="#0E2423" transform="translate(327,182)"/>
<path d="M0 0 C0.99 0.33 1.98 0.66 3 1 C3 2.32 3 3.64 3 5 C2.01 5.66 1.02 6.32 0 7 C-0.66 6.67 -1.32 6.34 -2 6 C-1.34 4.02 -0.68 2.04 0 0 Z " fill="#57CBC4" transform="translate(77,157)"/>
<path d="M0 0 C-3.14591933 2.80045623 -5.067064 3.35261589 -9.25 3.1875 C-10.14203125 3.16042969 -11.0340625 3.13335937 -11.953125 3.10546875 C-12.62859375 3.07066406 -13.3040625 3.03585938 -14 3 C-14 2.67 -14 2.34 -14 2 C-4.58997722 -0.29612756 -4.58997722 -0.29612756 0 0 Z " fill="#82C8C4" transform="translate(223,46)"/>
<path d="M0 0 C2.6486859 3.19668988 4.93992341 6.39486597 7 10 C5.68 9.67 4.36 9.34 3 9 C2.67 7.35 2.34 5.7 2 4 C1.34 4 0.68 4 0 4 C0 2.68 0 1.36 0 0 Z " fill="#67ABA7" transform="translate(165,288)"/>
<path d="M0 0 C2.52588702 2.36292656 3.88820837 3.66462511 5 7 C3.68 7.33 2.36 7.66 1 8 C-0.35439668 5.29120665 -0.06501451 2.99066732 0 0 Z " fill="#61B5AE" transform="translate(153,271)"/>
<path d="M0 0 C1.32 0.33 2.64 0.66 4 1 C3.34 2.65 2.68 4.3 2 6 C2.66 6 3.32 6 4 6 C3.67 6.66 3.34 7.32 3 8 C2.34 7.67 1.68 7.34 1 7 C0.59270772 4.67843403 0.25561323 2.3431213 0 0 Z " fill="#93DCD7" transform="translate(427,265)"/>
<path d="M0 0 C2.0625 1.75 2.0625 1.75 4 4 C3.875 6.1875 3.875 6.1875 3 8 C2.01 8.495 2.01 8.495 1 9 C0.67 6.03 0.34 3.06 0 0 Z " fill="#72B4AB" transform="translate(274,239)"/>
<path d="M0 0 C2.475 0.495 2.475 0.495 5 1 C5.33 2.98 5.66 4.96 6 7 C1.125 2.25 1.125 2.25 0 0 Z " fill="#76BDBB" transform="translate(262,226)"/>
<path d="M0 0 C0.33 1.32 0.66 2.64 1 4 C0.01 4.495 0.01 4.495 -1 5 C-1.33 5.99 -1.66 6.98 -2 8 C-2.99 7.67 -3.98 7.34 -5 7 C-3.35 4.69 -1.7 2.38 0 0 Z " fill="#6DB1A9" transform="translate(277,255)"/>
<path d="M0 0 C0.66 0.33 1.32 0.66 2 1 C-0.97 4.96 -0.97 4.96 -4 9 C-4.33 8.01 -4.66 7.02 -5 6 C-3.59554165 3.7363436 -1.8032087 1.9791315 0 0 Z " fill="#75B9B5" transform="translate(266,258)"/>
<path d="M0 0 C0.99 0.33 1.98 0.66 3 1 C3.33 2.65 3.66 4.3 4 6 C3.01 6 2.02 6 1 6 C0.34 4.35 -0.32 2.7 -1 1 C-0.67 0.67 -0.34 0.34 0 0 Z " fill="#67BAB3" transform="translate(146,249)"/>
<path d="M0 0 C0.66 0 1.32 0 2 0 C0.47291037 3.43595166 -1.59927045 6.11912454 -4 9 C-4.66 8.67 -5.32 8.34 -6 8 C-5.04956626 6.66102417 -4.08940853 5.32894573 -3.125 4 C-2.59132813 3.2575 -2.05765625 2.515 -1.5078125 1.75 C-1.01023437 1.1725 -0.51265625 0.595 0 0 Z " fill="#132C2B" transform="translate(276,247)"/>
<path d="M0 0 C1.98 0.99 1.98 0.99 4 2 C4 2.66 4 3.32 4 4 C4.99 4 5.98 4 7 4 C6.67 4.99 6.34 5.98 6 7 C3 6 3 6 1.3125 2.9375 C0.879375 1.968125 0.44625 0.99875 0 0 Z " fill="#7CBEB4" transform="translate(277,232)"/>
<path d="M0 0 C0.66 0.33 1.32 0.66 2 1 C1.67 2.32 1.34 3.64 1 5 C-0.32 4.67 -1.64 4.34 -3 4 C-2.01 2.68 -1.02 1.36 0 0 Z M-6 6 C-5.01 6.495 -5.01 6.495 -4 7 C-4.99 7.495 -4.99 7.495 -6 8 C-6 7.34 -6 6.68 -6 6 Z " fill="#02070B" transform="translate(304,212)"/>
<path d="M0 0 C0.66 0 1.32 0 2 0 C0.90931332 3.77545388 0.0916909 6.47043472 -3 9 C-2.69181644 7.68647977 -2.37832335 6.37420428 -2.0625 5.0625 C-1.88847656 4.33160156 -1.71445312 3.60070312 -1.53515625 2.84765625 C-1 1 -1 1 0 0 Z " fill="#A3D9D4" transform="translate(440,337)"/>
<path d="M0 0 C0.33 0.66 0.66 1.32 1 2 C0.06421005 4.35981813 -0.93347808 6.69631264 -2 9 C-2.66 8.67 -3.32 8.34 -4 8 C-1.125 1.125 -1.125 1.125 0 0 Z " fill="#75BFB9" transform="translate(256,284)"/>
<path d="M0 0 C0.99 0.33 1.98 0.66 3 1 C3 2.98 3 4.96 3 7 C1.68 7.33 0.36 7.66 -1 8 C-0.34 7.67 0.32 7.34 1 7 C0.67 4.69 0.34 2.38 0 0 Z " fill="#030E0F" transform="translate(424,275)"/>
<path d="M0 0 C1.9375 0.3125 1.9375 0.3125 4 1 C4.33 1.99 4.66 2.98 5 4 C4.38125 4.144375 3.7625 4.28875 3.125 4.4375 C0.96741678 4.93152225 0.96741678 4.93152225 -1 6 C-0.67 4.02 -0.34 2.04 0 0 Z " fill="#0D191C" transform="translate(302,270)"/>
<path d="M0 0 C0 0.99 0 1.98 0 3 C-3.3 2.34 -6.6 1.68 -10 1 C-10 0.67 -10 0.34 -10 0 C-3.375 -1.125 -3.375 -1.125 0 0 Z " fill="#1D3536" transform="translate(427,267)"/>
<path d="M0 0 C0.66 0.66 1.32 1.32 2 2 C-0.31 2.66 -2.62 3.32 -5 4 C-4.67 3.01 -4.34 2.02 -4 1 C-2.0625 0.1875 -2.0625 0.1875 0 0 Z M-7 4 C-6.34 4 -5.68 4 -5 4 C-5 4.99 -5 5.98 -5 7 C-5.66 7 -6.32 7 -7 7 C-7 6.01 -7 5.02 -7 4 Z " fill="#63CCC9" transform="translate(149,77)"/>
<path d="M0 0 C1.65 0.33 3.3 0.66 5 1 C2.82575883 3.50037734 1.26954202 4.43628586 -2 5 C-2 4.01 -2 3.02 -2 2 C-1.34 1.67 -0.68 1.34 0 1 C0 0.67 0 0.34 0 0 Z " fill="#6BD1CA" transform="translate(204,51)"/>
<path d="M0 0 C0.66 0 1.32 0 2 0 C1.67 1.32 1.34 2.64 1 4 C-0.98 4 -2.96 4 -5 4 C-5 3.34 -5 2.68 -5 2 C-3.35 2 -1.7 2 0 2 C0 1.34 0 0.68 0 0 Z " fill="#96C2BB" transform="translate(422,278)"/>
<path d="M0 0 C2.64 0.33 5.28 0.66 8 1 C8 1.66 8 2.32 8 3 C3.25 2.125 3.25 2.125 1 1 C0.67 1.99 0.34 2.98 0 4 C0 2.68 0 1.36 0 0 Z " fill="#6E9B99" transform="translate(396,279)"/>
<path d="M0 0 C2.31 0 4.62 0 7 0 C6.67 0.99 6.34 1.98 6 3 C4.35 3 2.7 3 1 3 C0.67 2.01 0.34 1.02 0 0 Z " fill="#93D6D1" transform="translate(416,277)"/>
<path d="M0 0 C0.99 0 1.98 0 3 0 C2.67 1.65 2.34 3.3 2 5 C2.66 5.33 3.32 5.66 4 6 C3.01 6 2.02 6 1 6 C0.34 4.35 -0.32 2.7 -1 1 C-0.67 0.67 -0.34 0.34 0 0 Z " fill="#63BAB6" transform="translate(130,225)"/>
</svg>
